<svg width="227" height="60" viewBox="0 0 227 60" fill="none" xmlns="http://www.w3.org/2000/svg">
<g clip-path="url(#clip0_1_5)">
<path d="M217.137 0H7.88342C2.97724 0 -1 4.02944 -1 9V51C-1 55.9706 2.97724 60 7.88342 60H217.137C222.043 60 226.021 55.9706 226.021 51V9C226.021 4.02944 222.043 0 217.137 0Z" fill="#FFD743" stroke="black" stroke-width="2"/>
<rect x="-2" width="230" height="60" rx="9" fill="#07BB9C" stroke="black" stroke-width="2"/>
<rect x="-2" width="230" height="60" rx="9" fill="black" stroke="black" stroke-width="2"/>
<path d="M31.7305 29.8047C31.4023 29.8047 31.0898 29.7422 30.793 29.6172C30.5039 29.4844 30.25 29.3125 30.0312 29.1016C29.8125 28.8828 29.6406 28.6289 29.5156 28.3398C29.3906 28.043 29.3281 27.7305 29.3281 27.4023V22.5977C29.3281 22.2695 29.3906 21.9609 29.5156 21.6719C29.6406 21.375 29.8125 21.1211 30.0312 20.9102C30.25 20.6914 30.5039 20.5195 30.793 20.3945C31.0898 20.2617 31.4023 20.1953 31.7305 20.1953H39.8867C40.2148 20.1953 40.5234 20.2617 40.8125 20.3945C41.1094 20.5195 41.3672 20.6914 41.5859 20.9102C41.8047 21.1211 41.9766 21.375 42.1016 21.6719C42.2266 21.9609 42.2891 22.2695 42.2891 22.5977V24.7656H39.8867V22.5977H31.7305V27.4023H39.8867C40.2148 27.4023 40.5234 27.4648 40.8125 27.5898C41.1094 27.7148 41.3672 27.8867 41.5859 28.1055C41.8047 28.3242 41.9766 28.582 42.1016 28.8789C42.2266 29.168 42.2891 29.4766 42.2891 29.8047V34.5977C42.2891 34.9258 42.2266 35.2383 42.1016 35.5352C41.9766 35.8242 41.8047 36.0781 41.5859 36.2969C41.3672 36.5156 41.1094 36.6875 40.8125 36.8125C40.5234 36.9375 40.2148 37 39.8867 37H31.4961C31.168 37 30.8555 36.9375 30.5586 36.8125C30.2695 36.6875 30.0156 36.5156 29.7969 36.2969C29.5781 36.0781 29.4062 35.8242 29.2812 35.5352C29.1562 35.2383 29.0938 34.9258 29.0938 34.5977V32.4414H31.4961V34.5977H39.8867V29.8047H31.7305ZM45.6641 24.5195H48.7109V20.6758H51.0195V24.5195H55.1211V26.8281H51.0195V34.6914H55.1211V37H51.0195C50.707 37 50.4102 36.9414 50.1289 36.8242C49.8477 36.6992 49.6016 36.5352 49.3906 36.332C49.1797 36.1211 49.0117 35.875 48.8867 35.5938C48.7695 35.3125 48.7109 35.0117 48.7109 34.6914V26.8281H45.6641V24.5195ZM58.9766 31.5508C58.9766 31.2305 59.0352 30.9336 59.1523 30.6602C59.2773 30.3789 59.4414 30.1328 59.6445 29.9219C59.8555 29.7109 60.1016 29.5469 60.3828 29.4297C60.6641 29.3047 60.9609 29.2422 61.2734 29.2422H67.2266V26.8281H59.6914V24.5195H67.2266C67.5469 24.5195 67.8477 24.582 68.1289 24.707C68.4102 24.8242 68.6523 24.9883 68.8555 25.1992C69.0664 25.4023 69.2305 25.6445 69.3477 25.9258C69.4727 26.207 69.5352 26.5078 69.5352 26.8281V37H67.2266V34.8906C67.2031 35.1797 67.125 35.4531 66.9922 35.7109C66.8594 35.9688 66.6875 36.1953 66.4766 36.3906C66.2734 36.5781 66.0391 36.7266 65.7734 36.8359C65.5078 36.9453 65.2266 37 64.9297 37H61.2734C60.9609 37 60.6641 36.9414 60.3828 36.8242C60.1016 36.6992 59.8555 36.5352 59.6445 36.332C59.4414 36.1211 59.2773 35.875 59.1523 35.5938C59.0352 35.3125 58.9766 35.0117 58.9766 34.6914V31.5508ZM61.2734 34.6914H67.2266V31.5508H61.2734V34.6914ZM75.6875 26.8281V37H73.3906V24.5195H75.6875V26.7227C75.7031 26.418 75.7734 26.1328 75.8984 25.8672C76.0234 25.5938 76.1875 25.3594 76.3906 25.1641C76.6016 24.9609 76.8438 24.8047 77.1172 24.6953C77.3906 24.5781 77.6836 24.5195 77.9961 24.5195H80.4453C80.7656 24.5195 81.0625 24.582 81.3359 24.707C81.6172 24.8242 81.8633 24.9883 82.0742 25.1992C82.2852 25.4023 82.4492 25.6445 82.5664 25.9258C82.6914 26.207 82.7539 26.5078 82.7539 26.8281V28.9375H80.4453V26.8281H75.6875ZM84.8984 24.5195H87.9453V20.6758H90.2539V24.5195H94.3555V26.8281H90.2539V34.6914H94.3555V37H90.2539C89.9414 37 89.6445 36.9414 89.3633 36.8242C89.082 36.6992 88.8359 36.5352 88.625 36.332C88.4141 36.1211 88.2461 35.875 88.1211 35.5938C88.0039 35.3125 87.9453 35.0117 87.9453 34.6914V26.8281H84.8984V24.5195ZM118.918 26.1953C118.918 28.5391 117.918 29.875 115.918 30.2031L119.082 37H116.422L113.305 30.2852H108.043V37H105.641V20.1953H114.84C117.559 20.1953 118.918 21.5586 118.918 24.2852V26.1953ZM108.043 27.8828H114.711C115.352 27.8828 115.812 27.7422 116.094 27.4609C116.375 27.1797 116.516 26.7188 116.516 26.0781V24.4023C116.516 23.7617 116.375 23.3008 116.094 23.0195C115.812 22.7383 115.352 22.5977 114.711 22.5977H108.043V27.8828ZM133.262 31.9375H125V34.6914H133.262V37H125C124.688 37 124.391 36.9414 124.109 36.8242C123.828 36.6992 123.582 36.5352 123.371 36.332C123.168 36.1211 123.004 35.875 122.879 35.5938C122.762 35.3125 122.703 35.0117 122.703 34.6914V26.8281C122.703 26.5078 122.762 26.207 122.879 25.9258C123.004 25.6445 123.168 25.4023 123.371 25.1992C123.582 24.9883 123.828 24.8242 124.109 24.707C124.391 24.582 124.688 24.5195 125 24.5195H130.953C131.273 24.5195 131.574 24.582 131.855 24.707C132.137 24.8242 132.379 24.9883 132.582 25.1992C132.793 25.4023 132.957 25.6445 133.074 25.9258C133.199 26.207 133.262 26.5078 133.262 26.8281V31.9375ZM125 26.8281V29.6289H130.953V26.8281H125ZM148.156 37H145.848V26.8281H139.414V37H137.117V24.5195H139.414V26.7227C139.43 26.418 139.5 26.1328 139.625 25.8672C139.75 25.5938 139.914 25.3594 140.117 25.1641C140.328 24.9609 140.57 24.8047 140.844 24.6953C141.117 24.5781 141.41 24.5195 141.723 24.5195H145.848C146.168 24.5195 146.469 24.582 146.75 24.707C147.031 24.8242 147.273 24.9883 147.477 25.1992C147.688 25.4023 147.852 25.6445 147.969 25.9258C148.094 26.207 148.156 26.5078 148.156 26.8281V37ZM151.273 24.5195H154.32V20.6758H156.629V24.5195H160.73V26.8281H156.629V34.6914H160.73V37H156.629C156.316 37 156.02 36.9414 155.738 36.8242C155.457 36.6992 155.211 36.5352 155 36.332C154.789 36.1211 154.621 35.875 154.496 35.5938C154.379 35.3125 154.32 35.0117 154.32 34.6914V26.8281H151.273V24.5195ZM167.012 24.5195V37H164.703V24.5195H167.012ZM164.586 19.7148H167.129V22.1172H164.586V19.7148ZM182.023 37H179.715V26.8281H173.281V37H170.984V24.5195H173.281V26.7227C173.297 26.418 173.367 26.1328 173.492 25.8672C173.617 25.5938 173.781 25.3594 173.984 25.1641C174.195 24.9609 174.438 24.8047 174.711 24.6953C174.984 24.5781 175.277 24.5195 175.59 24.5195H179.715C180.035 24.5195 180.336 24.582 180.617 24.707C180.898 24.8242 181.141 24.9883 181.344 25.1992C181.555 25.4023 181.719 25.6445 181.836 25.9258C181.961 26.207 182.023 26.5078 182.023 26.8281V37ZM185.867 26.8281C185.867 26.5078 185.926 26.207 186.043 25.9258C186.168 25.6445 186.332 25.4023 186.535 25.1992C186.746 24.9883 186.992 24.8242 187.273 24.707C187.555 24.582 187.852 24.5195 188.164 24.5195H192.301C192.605 24.5195 192.895 24.5781 193.168 24.6953C193.441 24.8047 193.68 24.9609 193.883 25.1641C194.094 25.3594 194.262 25.5938 194.387 25.8672C194.52 26.1328 194.59 26.418 194.598 26.7227V24.5195H196.906V39.7305C196.906 40.0508 196.844 40.3516 196.719 40.6328C196.602 40.9141 196.438 41.1562 196.227 41.3594C196.023 41.5703 195.781 41.7344 195.5 41.8516C195.219 41.9766 194.918 42.0391 194.598 42.0391H187.309V39.7305H194.598V36.5195H188.164C187.852 36.5195 187.555 36.4609 187.273 36.3438C186.992 36.2188 186.746 36.0547 186.535 35.8516C186.332 35.6406 186.168 35.3945 186.043 35.1133C185.926 34.832 185.867 34.5312 185.867 34.2109V26.8281ZM194.598 34.2109V26.8281H188.164V34.2109H194.598Z" fill="white"/>
<path d="M30.793 29.6172L30.5842 30.0715L30.5915 30.0749L30.5989 30.078L30.793 29.6172ZM30.0312 29.1016L29.6776 29.4552L29.6842 29.4615L30.0312 29.1016ZM29.5156 28.3398L29.0548 28.5339L29.0567 28.5383L29.5156 28.3398ZM29.5156 21.6719L29.9746 21.8703L29.9764 21.8659L29.5156 21.6719ZM30.0312 20.9102L30.3784 21.2701L30.3848 21.2637L30.0312 20.9102ZM30.793 20.3945L30.9914 20.8535L30.9972 20.8509L30.793 20.3945ZM40.8125 20.3945L40.6037 20.8489L40.6111 20.8522L40.6185 20.8553L40.8125 20.3945ZM41.5859 20.9102L41.2323 21.2638L41.2389 21.2701L41.5859 20.9102ZM42.1016 21.6719L41.6407 21.8659L41.6426 21.8703L42.1016 21.6719ZM42.2891 24.7656V25.2656H42.7891V24.7656H42.2891ZM39.8867 24.7656H39.3867V25.2656H39.8867V24.7656ZM39.8867 22.5977H40.3867V22.0977H39.8867V22.5977ZM31.7305 22.5977V22.0977H31.2305V22.5977H31.7305ZM31.7305 27.4023H31.2305V27.9023H31.7305V27.4023ZM40.8125 27.5898L40.614 28.0488L40.6185 28.0507L40.8125 27.5898ZM42.1016 28.8789L41.6407 29.0729L41.6426 29.0774L42.1016 28.8789ZM42.1016 35.5352L42.5605 35.7336L42.5624 35.7292L42.1016 35.5352ZM40.8125 36.8125L40.6185 36.3517L40.614 36.3536L40.8125 36.8125ZM30.5586 36.8125L30.3601 37.2714L30.3646 37.2733L30.5586 36.8125ZM29.2812 35.5352L28.8204 35.7292L28.8223 35.7336L29.2812 35.5352ZM29.0938 32.4414V31.9414H28.5938V32.4414H29.0938ZM31.4961 32.4414H31.9961V31.9414H31.4961V32.4414ZM31.4961 34.5977H30.9961V35.0977H31.4961V34.5977ZM39.8867 34.5977V35.0977H40.3867V34.5977H39.8867ZM39.8867 29.8047H40.3867V29.3047H39.8867V29.8047ZM31.7305 29.3047C31.4677 29.3047 31.2213 29.255 30.987 29.1564L30.5989 30.078C30.9584 30.2294 31.337 30.3047 31.7305 30.3047V29.3047ZM31.0017 29.1628C30.7613 29.0524 30.5547 28.9118 30.3783 28.7416L29.6842 29.4615C29.9453 29.7132 30.2465 29.9164 30.5842 30.0715L31.0017 29.1628ZM30.3848 28.748C30.2115 28.5747 30.075 28.3736 29.9746 28.1414L29.0567 28.5383C29.2063 28.8842 29.4135 29.191 29.6777 29.4551L30.3848 28.748ZM29.9764 28.1458C29.8778 27.9115 29.8281 27.6651 29.8281 27.4023H28.8281C28.8281 27.7958 28.9035 28.1744 29.0548 28.5339L29.9764 28.1458ZM29.8281 27.4023V22.5977H28.8281V27.4023H29.8281ZM29.8281 22.5977C29.8281 22.3349 29.8778 22.0941 29.9746 21.8703L29.0567 21.4734C28.9035 21.8278 28.8281 22.2042 28.8281 22.5977H29.8281ZM29.9764 21.8659C30.0768 21.6277 30.2112 21.4312 30.3783 21.2701L29.6842 20.5502C29.4138 20.811 29.2045 21.1223 29.0548 21.4778L29.9764 21.8659ZM30.3848 21.2637C30.5581 21.0904 30.7592 20.9539 30.9914 20.8535L30.5945 19.9356C30.2486 20.0852 29.9419 20.2924 29.6777 20.5566L30.3848 21.2637ZM30.9972 20.8509C31.2292 20.7471 31.4721 20.6953 31.7305 20.6953V19.6953C31.3326 19.6953 30.9505 19.7763 30.5888 19.9381L30.9972 20.8509ZM31.7305 20.6953H39.8867V19.6953H31.7305V20.6953ZM39.8867 20.6953C40.1451 20.6953 40.3823 20.7471 40.6037 20.8489L41.0213 19.9402C40.6646 19.7763 40.2846 19.6953 39.8867 19.6953V20.6953ZM40.6185 20.8553C40.8582 20.9563 41.0613 21.0926 41.2324 21.2637L41.9395 20.5566C41.6731 20.2902 41.3605 20.0828 41.0065 19.9337L40.6185 20.8553ZM41.2389 21.2701C41.406 21.4312 41.5404 21.6277 41.6407 21.8659L42.5624 21.4778C42.4127 21.1223 42.2034 20.811 41.933 20.5502L41.2389 21.2701ZM41.6426 21.8703C41.7394 22.0941 41.7891 22.3349 41.7891 22.5977H42.7891C42.7891 22.2042 42.7137 21.8278 42.5605 21.4734L41.6426 21.8703ZM41.7891 22.5977V24.7656H42.7891V22.5977H41.7891ZM42.2891 24.2656H39.8867V25.2656H42.2891V24.2656ZM40.3867 24.7656V22.5977H39.3867V24.7656H40.3867ZM39.8867 22.0977H31.7305V23.0977H39.8867V22.0977ZM31.2305 22.5977V27.4023H32.2305V22.5977H31.2305ZM31.7305 27.9023H39.8867V26.9023H31.7305V27.9023ZM39.8867 27.9023C40.1495 27.9023 40.3903 27.952 40.614 28.0488L41.011 27.1309C40.6566 26.9777 40.2802 26.9023 39.8867 26.9023V27.9023ZM40.6185 28.0507C40.8582 28.1516 41.0613 28.2879 41.2324 28.459L41.9395 27.7519C41.6731 27.4855 41.3605 27.2781 41.0065 27.129L40.6185 28.0507ZM41.2324 28.459C41.4035 28.6302 41.5398 28.8332 41.6407 29.0729L42.5624 28.6849C42.4133 28.3309 42.2059 28.0183 41.9395 27.7519L41.2324 28.459ZM41.6426 29.0774C41.7394 29.3011 41.7891 29.5419 41.7891 29.8047H42.7891C42.7891 29.4112 42.7137 29.0348 42.5605 28.6805L41.6426 29.0774ZM41.7891 29.8047V34.5977H42.7891V29.8047H41.7891ZM41.7891 34.5977C41.7891 34.8604 41.7394 35.1068 41.6407 35.3411L42.5624 35.7292C42.7137 35.3697 42.7891 34.9911 42.7891 34.5977H41.7891ZM41.6426 35.3367C41.5422 35.5689 41.4057 35.77 41.2324 35.9433L41.9395 36.6504C42.2036 36.3863 42.4109 36.0795 42.5605 35.7336L41.6426 35.3367ZM41.2324 35.9433C41.0613 36.1145 40.8582 36.2507 40.6185 36.3517L41.0065 37.2733C41.3605 37.1243 41.6731 36.9168 41.9395 36.6504L41.2324 35.9433ZM40.614 36.3536C40.3903 36.4503 40.1495 36.5 39.8867 36.5V37.5C40.2802 37.5 40.6566 37.4247 41.011 37.2714L40.614 36.3536ZM39.8867 36.5H31.4961V37.5H39.8867V36.5ZM31.4961 36.5C31.2333 36.5 30.9869 36.4503 30.7526 36.3517L30.3646 37.2733C30.724 37.4247 31.1026 37.5 31.4961 37.5V36.5ZM30.757 36.3536C30.5248 36.2531 30.3238 36.1167 30.1504 35.9433L29.4433 36.6504C29.7075 36.9146 30.0143 37.1219 30.3601 37.2714L30.757 36.3536ZM30.1504 35.9433C29.9771 35.77 29.8406 35.5689 29.7402 35.3367L28.8223 35.7336C28.9719 36.0795 29.1792 36.3863 29.4433 36.6504L30.1504 35.9433ZM29.7421 35.3411C29.6434 35.1068 29.5938 34.8604 29.5938 34.5977H28.5938C28.5938 34.9911 28.6691 35.3697 28.8204 35.7292L29.7421 35.3411ZM29.5938 34.5977V32.4414H28.5938V34.5977H29.5938ZM29.0938 32.9414H31.4961V31.9414H29.0938V32.9414ZM30.9961 32.4414V34.5977H31.9961V32.4414H30.9961ZM31.4961 35.0977H39.8867V34.0977H31.4961V35.0977ZM40.3867 34.5977V29.8047H39.3867V34.5977H40.3867ZM39.8867 29.3047H31.7305V30.3047H39.8867V29.3047ZM45.6641 24.5195V24.0195H45.1641V24.5195H45.6641ZM48.7109 24.5195V25.0195H49.2109V24.5195H48.7109ZM48.7109 20.6758V20.1758H48.2109V20.6758H48.7109ZM51.0195 20.6758H51.5195V20.1758H51.0195V20.6758ZM51.0195 24.5195H50.5195V25.0195H51.0195V24.5195ZM55.1211 24.5195H55.6211V24.0195H55.1211V24.5195ZM55.1211 26.8281V27.3281H55.6211V26.8281H55.1211ZM51.0195 26.8281V26.3281H50.5195V26.8281H51.0195ZM51.0195 34.6914H50.5195V35.1914H51.0195V34.6914ZM55.1211 34.6914H55.6211V34.1914H55.1211V34.6914ZM55.1211 37V37.5H55.6211V37H55.1211ZM50.1289 36.8242L49.9258 37.2812L49.9366 37.2858L50.1289 36.8242ZM49.3906 36.332L49.037 36.6856L49.0438 36.6922L49.3906 36.332ZM48.8867 35.5938L48.4251 35.7861L48.4298 35.7968L48.8867 35.5938ZM48.7109 26.8281H49.2109V26.3281H48.7109V26.8281ZM45.6641 26.8281H45.1641V27.3281H45.6641V26.8281ZM45.6641 25.0195H48.7109V24.0195H45.6641V25.0195ZM49.2109 24.5195V20.6758H48.2109V24.5195H49.2109ZM48.7109 21.1758H51.0195V20.1758H48.7109V21.1758ZM50.5195 20.6758V24.5195H51.5195V20.6758H50.5195ZM51.0195 25.0195H55.1211V24.0195H51.0195V25.0195ZM54.6211 24.5195V26.8281H55.6211V24.5195H54.6211ZM55.1211 26.3281H51.0195V27.3281H55.1211V26.3281ZM50.5195 26.8281V34.6914H51.5195V26.8281H50.5195ZM51.0195 35.1914H55.1211V34.1914H51.0195V35.1914ZM54.6211 34.6914V37H55.6211V34.6914H54.6211ZM55.1211 36.5H51.0195V37.5H55.1211V36.5ZM51.0195 36.5C50.7713 36.5 50.54 36.4538 50.3212 36.3627L49.9366 37.2858C50.2804 37.429 50.6428 37.5 51.0195 37.5V36.5ZM50.332 36.3673C50.1012 36.2647 49.9044 36.1326 49.7374 35.9719L49.0438 36.6922C49.2988 36.9377 49.5941 37.1337 49.9258 37.2811L50.332 36.3673ZM49.7442 35.9785C49.578 35.8123 49.4445 35.6177 49.3436 35.3907L48.4298 35.7968C48.5789 36.1323 48.7814 36.4299 49.0371 36.6856L49.7442 35.9785ZM49.3483 35.4014C49.2578 35.1842 49.2109 34.9491 49.2109 34.6914H48.2109C48.2109 35.0743 48.2813 35.4408 48.4252 35.7861L49.3483 35.4014ZM49.2109 34.6914V26.8281H48.2109V34.6914H49.2109ZM48.7109 26.3281H45.6641V27.3281H48.7109V26.3281ZM46.1641 26.8281V24.5195H45.1641V26.8281H46.1641ZM59.1523 30.6602L58.6954 30.4571L58.6928 30.4632L59.1523 30.6602ZM59.6445 29.9219L59.2909 29.5683L59.2844 29.5751L59.6445 29.9219ZM60.3828 29.4297L60.5752 29.8914L60.5859 29.8866L60.3828 29.4297ZM67.2266 29.2422V29.7422H67.7266V29.2422H67.2266ZM67.2266 26.8281H67.7266V26.3281H67.2266V26.8281ZM59.6914 26.8281H59.1914V27.3281H59.6914V26.8281ZM59.6914 24.5195V24.0195H59.1914V24.5195H59.6914ZM68.1289 24.707L67.9258 25.1641L67.9366 25.1686L68.1289 24.707ZM68.8555 25.1992L68.4953 25.546L68.5019 25.5528L68.5086 25.5594L68.8555 25.1992ZM69.3477 25.9258L68.886 26.1181L68.8908 26.1289L69.3477 25.9258ZM69.5352 37V37.5H70.0352V37H69.5352ZM67.2266 37H66.7266V37.5H67.2266V37ZM67.2266 34.8906H67.7266L66.7282 34.8502L67.2266 34.8906ZM66.4766 36.3906L66.8157 36.758L66.8163 36.7575L66.4766 36.3906ZM65.7734 36.8359L65.9638 37.2983L65.7734 36.8359ZM60.3828 36.8242L60.1797 37.2812L60.1905 37.2858L60.3828 36.8242ZM59.6445 36.332L59.2844 36.6789L59.2909 36.6856L59.2977 36.6922L59.6445 36.332ZM59.1523 35.5938L58.6907 35.7861L58.6954 35.7968L59.1523 35.5938ZM61.2734 34.6914H60.7734V35.1914H61.2734V34.6914ZM67.2266 34.6914V35.1914H67.7266V34.6914H67.2266ZM67.2266 31.5508H67.7266V31.0508H67.2266V31.5508ZM61.2734 31.5508V31.0508H60.7734V31.5508H61.2734ZM59.4766 31.5508C59.4766 31.2929 59.5234 31.0637 59.6119 30.8571L58.6928 30.4632C58.5469 30.8035 58.4766 31.168 58.4766 31.5508H59.4766ZM59.6092 30.8632C59.7118 30.6324 59.844 30.4356 60.0047 30.2687L59.2844 29.5751C59.0388 29.83 58.8429 30.1254 58.6954 30.4571L59.6092 30.8632ZM59.9981 30.2754C60.1618 30.1117 60.3528 29.9838 60.5751 29.8912L60.1905 28.9681C59.8503 29.1099 59.5491 29.3102 59.291 29.5683L59.9981 30.2754ZM60.5859 29.8866C60.8022 29.7905 61.0298 29.7422 61.2734 29.7422V28.7422C60.8921 28.7422 60.5259 28.8189 60.1797 28.9728L60.5859 29.8866ZM61.2734 29.7422H67.2266V28.7422H61.2734V29.7422ZM67.7266 29.2422V26.8281H66.7266V29.2422H67.7266ZM67.2266 26.3281H59.6914V27.3281H67.2266V26.3281ZM60.1914 26.8281V24.5195H59.1914V26.8281H60.1914ZM59.6914 25.0195H67.2266V24.0195H59.6914V25.0195ZM67.2266 25.0195C67.4798 25.0195 67.7111 25.0685 67.9258 25.1639L68.332 24.2501C67.9842 24.0956 67.6139 24.0195 67.2266 24.0195V25.0195ZM67.9366 25.1686C68.1572 25.2605 68.3416 25.3864 68.4953 25.546L69.2156 24.8524C68.9631 24.5901 68.6631 24.3879 68.3212 24.2455L67.9366 25.1686ZM68.5086 25.5594C68.6683 25.7131 68.7942 25.8974 68.8861 26.1181L69.8092 25.7335C69.6668 25.3916 69.4646 25.0916 69.2023 24.8391L68.5086 25.5594ZM68.8908 26.1289C68.9862 26.3436 69.0352 26.5749 69.0352 26.8281H70.0352C70.0352 26.4408 69.9591 26.0705 69.8046 25.7227L68.8908 26.1289ZM69.0352 26.8281V37H70.0352V26.8281H69.0352ZM69.5352 36.5H67.2266V37.5H69.5352V36.5ZM67.7266 37V34.8906H66.7266V37H67.7266ZM66.7282 34.8502C66.7101 35.0735 66.6503 35.2828 66.5477 35.482L67.4367 35.9399C67.5997 35.6234 67.6962 35.2859 67.7249 34.931L66.7282 34.8502ZM66.5477 35.482C66.4413 35.6885 66.3047 35.8683 66.1369 36.0237L66.8163 36.7575C67.0703 36.5223 67.2775 36.249 67.4367 35.9399L66.5477 35.482ZM66.1374 36.0232C65.9796 36.1689 65.796 36.2859 65.5831 36.3736L65.9638 37.2983C66.2821 37.1672 66.5673 36.9873 66.8157 36.758L66.1374 36.0232ZM65.5831 36.3736C65.3799 36.4573 65.1635 36.5 64.9297 36.5V37.5C65.2896 37.5 65.6358 37.4334 65.9638 37.2983L65.5831 36.3736ZM64.9297 36.5H61.2734V37.5H64.9297V36.5ZM61.2734 36.5C61.0252 36.5 60.7939 36.4538 60.5751 36.3627L60.1905 37.2858C60.5343 37.429 60.8967 37.5 61.2734 37.5V36.5ZM60.5859 36.3673C60.3551 36.2647 60.1583 36.1326 59.9914 35.9719L59.2977 36.6922C59.5527 36.9377 59.8481 37.1337 60.1797 37.2811L60.5859 36.3673ZM60.0047 35.9852C59.844 35.8183 59.7118 35.6215 59.6092 35.3907L58.6954 35.7968C58.8429 36.1285 59.0388 36.4239 59.2844 36.6789L60.0047 35.9852ZM59.6139 35.4014C59.5234 35.1842 59.4766 34.9491 59.4766 34.6914H58.4766C58.4766 35.0743 58.5469 35.4408 58.6908 35.7861L59.6139 35.4014ZM59.4766 34.6914V31.5508H58.4766V34.6914H59.4766ZM61.2734 35.1914H67.2266V34.1914H61.2734V35.1914ZM67.7266 34.6914V31.5508H66.7266V34.6914H67.7266ZM67.2266 31.0508H61.2734V32.0508H67.2266V31.0508ZM60.7734 31.5508V34.6914H61.7734V31.5508H60.7734ZM75.6875 26.8281V26.3281H75.1875V26.8281H75.6875ZM75.6875 37V37.5H76.1875V37H75.6875ZM73.3906 37H72.8906V37.5H73.3906V37ZM73.3906 24.5195V24.0195H72.8906V24.5195H73.3906ZM75.6875 24.5195H76.1875V24.0195H75.6875V24.5195ZM75.6875 26.7227H75.1875L76.1868 26.7483L75.6875 26.7227ZM75.8984 25.8672L76.3509 26.0801L76.3532 26.0751L75.8984 25.8672ZM76.3906 25.1641L76.7372 25.5245L76.7374 25.5242L76.3906 25.1641ZM77.1172 24.6953L77.3029 25.1597L77.3141 25.1549L77.1172 24.6953ZM81.3359 24.707L81.1281 25.1618L81.1358 25.1653L81.1436 25.1686L81.3359 24.707ZM82.0742 25.1992L81.7206 25.5528L81.7274 25.5594L82.0742 25.1992ZM82.5664 25.9258L82.1047 26.1181L82.1095 26.1289L82.5664 25.9258ZM82.7539 28.9375V29.4375H83.2539V28.9375H82.7539ZM80.4453 28.9375H79.9453V29.4375H80.4453V28.9375ZM80.4453 26.8281H80.9453V26.3281H80.4453V26.8281ZM75.1875 26.8281V37H76.1875V26.8281H75.1875ZM75.6875 36.5H73.3906V37.5H75.6875V36.5ZM73.8906 37V24.5195H72.8906V37H73.8906ZM73.3906 25.0195H75.6875V24.0195H73.3906V25.0195ZM75.1875 24.5195V26.7227H76.1875V24.5195H75.1875ZM76.1868 26.7483C76.1993 26.5059 76.2546 26.2846 76.3508 26.0801L75.446 25.6543C75.2923 25.981 75.207 26.3301 75.1882 26.697L76.1868 26.7483ZM76.3532 26.0751C76.4538 25.855 76.5824 25.6733 76.7372 25.5245L76.0441 24.8036C75.7926 25.0454 75.5931 25.3325 75.4437 25.6593L76.3532 26.0751ZM76.7374 25.5242C76.9016 25.3661 77.089 25.2451 77.3029 25.1596L76.9315 24.2311C76.5985 24.3643 76.3015 24.5558 76.0438 24.8039L76.7374 25.5242ZM77.3141 25.1549C77.5222 25.0657 77.7478 25.0195 77.9961 25.0195V24.0195C77.6194 24.0195 77.259 24.0905 76.9202 24.2357L77.3141 25.1549ZM77.9961 25.0195H80.4453V24.0195H77.9961V25.0195ZM80.4453 25.0195C80.6987 25.0195 80.9241 25.0685 81.1281 25.1618L81.5438 24.2523C81.2009 24.0955 80.8326 24.0195 80.4453 24.0195V25.0195ZM81.1436 25.1686C81.3659 25.2612 81.5569 25.389 81.7207 25.5528L82.4278 24.8457C82.1697 24.5875 81.8685 24.3872 81.5282 24.2455L81.1436 25.1686ZM81.7274 25.5594C81.887 25.7131 82.0129 25.8974 82.1049 26.1181L83.0279 25.7335C82.8855 25.3916 82.6833 25.0916 82.421 24.8391L81.7274 25.5594ZM82.1095 26.1289C82.2049 26.3436 82.2539 26.5749 82.2539 26.8281H83.2539C83.2539 26.4408 83.1779 26.0705 83.0233 25.7227L82.1095 26.1289ZM82.2539 26.8281V28.9375H83.2539V26.8281H82.2539ZM82.7539 28.4375H80.4453V29.4375H82.7539V28.4375ZM80.9453 28.9375V26.8281H79.9453V28.9375H80.9453ZM80.4453 26.3281H75.6875V27.3281H80.4453V26.3281ZM84.8984 24.5195V24.0195H84.3984V24.5195H84.8984ZM87.9453 24.5195V25.0195H88.4453V24.5195H87.9453ZM87.9453 20.6758V20.1758H87.4453V20.6758H87.9453ZM90.2539 20.6758H90.7539V20.1758H90.2539V20.6758ZM90.2539 24.5195H89.7539V25.0195H90.2539V24.5195ZM94.3555 24.5195H94.8555V24.0195H94.3555V24.5195ZM94.3555 26.8281V27.3281H94.8555V26.8281H94.3555ZM90.2539 26.8281V26.3281H89.7539V26.8281H90.2539ZM90.2539 34.6914H89.7539V35.1914H90.2539V34.6914ZM94.3555 34.6914H94.8555V34.1914H94.3555V34.6914ZM94.3555 37V37.5H94.8555V37H94.3555ZM89.3633 36.8242L89.1602 37.2812L89.171 37.2858L89.3633 36.8242ZM88.625 36.332L88.2714 36.6856L88.2782 36.6922L88.625 36.332ZM88.1211 35.5938L87.6594 35.7861L87.6642 35.7968L88.1211 35.5938ZM87.9453 26.8281H88.4453V26.3281H87.9453V26.8281ZM84.8984 26.8281H84.3984V27.3281H84.8984V26.8281ZM84.8984 25.0195H87.9453V24.0195H84.8984V25.0195ZM88.4453 24.5195V20.6758H87.4453V24.5195H88.4453ZM87.9453 21.1758H90.2539V20.1758H87.9453V21.1758ZM89.7539 20.6758V24.5195H90.7539V20.6758H89.7539ZM90.2539 25.0195H94.3555V24.0195H90.2539V25.0195ZM93.8555 24.5195V26.8281H94.8555V24.5195H93.8555ZM94.3555 26.3281H90.2539V27.3281H94.3555V26.3281ZM89.7539 26.8281V34.6914H90.7539V26.8281H89.7539ZM90.2539 35.1914H94.3555V34.1914H90.2539V35.1914ZM93.8555 34.6914V37H94.8555V34.6914H93.8555ZM94.3555 36.5H90.2539V37.5H94.3555V36.5ZM90.2539 36.5C90.0057 36.5 89.7743 36.4538 89.5556 36.3627L89.171 37.2858C89.5147 37.429 89.8771 37.5 90.2539 37.5V36.5ZM89.5664 36.3673C89.3355 36.2647 89.1387 36.1326 88.9718 35.9719L88.2782 36.6922C88.5331 36.9377 88.8285 37.1337 89.1602 37.2811L89.5664 36.3673ZM88.9786 35.9785C88.8124 35.8123 88.6789 35.6177 88.578 35.3907L87.6642 35.7968C87.8133 36.1323 88.0157 36.4299 88.2714 36.6856L88.9786 35.9785ZM88.5826 35.4014C88.4921 35.1842 88.4453 34.9491 88.4453 34.6914H87.4453C87.4453 35.0743 87.5157 35.4408 87.6596 35.7861L88.5826 35.4014ZM88.4453 34.6914V26.8281H87.4453V34.6914H88.4453ZM87.9453 26.3281H84.8984V27.3281H87.9453V26.3281ZM85.3984 26.8281V24.5195H84.3984V26.8281H85.3984ZM115.918 30.2031L115.837 29.7097L115.186 29.8165L115.465 30.4141L115.918 30.2031ZM119.082 37V37.5H119.866L119.535 36.789L119.082 37ZM116.422 37L115.968 37.2105L116.103 37.5H116.422V37ZM113.305 30.2852L113.758 30.0746L113.624 29.7852H113.305V30.2852ZM108.043 30.2852V29.7852H107.543V30.2852H108.043ZM108.043 37V37.5H108.543V37H108.043ZM105.641 37H105.141V37.5H105.641V37ZM105.641 20.1953V19.6953H105.141V20.1953H105.641ZM108.043 27.8828H107.543V28.3828H108.043V27.8828ZM108.043 22.5977V22.0977H107.543V22.5977H108.043ZM118.418 26.1953C118.418 27.3017 118.181 28.1028 117.768 28.6555C117.361 29.1987 116.739 29.5618 115.837 29.7097L115.999 30.6965C117.097 30.5163 117.975 30.0474 118.568 29.2547C119.155 28.4715 119.418 27.4326 119.418 26.1953H118.418ZM115.465 30.4141L118.629 37.211L119.535 36.789L116.371 29.9921L115.465 30.4141ZM119.082 36.5H116.422V37.5H119.082V36.5ZM116.875 36.7895L113.758 30.0746L112.851 30.4957L115.968 37.2105L116.875 36.7895ZM113.305 29.7852H108.043V30.7852H113.305V29.7852ZM107.543 30.2852V37H108.543V30.2852H107.543ZM108.043 36.5H105.641V37.5H108.043V36.5ZM106.141 37V20.1953H105.141V37H106.141ZM105.641 20.6953H114.84V19.6953H105.641V20.6953ZM114.84 20.6953C116.122 20.6953 116.991 21.0163 117.544 21.5708C118.098 22.1256 118.418 22.9986 118.418 24.2852H119.418C119.418 22.8452 119.059 21.6733 118.252 20.8647C117.446 20.0559 116.277 19.6953 114.84 19.6953V20.6953ZM118.418 24.2852V26.1953H119.418V24.2852H118.418ZM108.043 28.3828H114.711V27.3828H108.043V28.3828ZM114.711 28.3828C115.406 28.3828 116.029 28.233 116.447 27.8145L115.74 27.1074C115.596 27.2514 115.297 27.3828 114.711 27.3828V28.3828ZM116.447 27.8145C116.866 27.396 117.016 26.7737 117.016 26.0781H116.016C116.016 26.6638 115.884 26.9634 115.74 27.1074L116.447 27.8145ZM117.016 26.0781V24.4023H116.016V26.0781H117.016ZM117.016 24.4023C117.016 23.7068 116.866 23.0845 116.447 22.666L115.74 23.3731C115.884 23.5171 116.016 23.8166 116.016 24.4023H117.016ZM116.447 22.666C116.029 22.2475 115.406 22.0977 114.711 22.0977V23.0977C115.297 23.0977 115.596 23.2291 115.74 23.3731L116.447 22.666ZM114.711 22.0977H108.043V23.0977H114.711V22.0977ZM107.543 22.5977V27.8828H108.543V22.5977H107.543ZM133.262 31.9375V32.4375H133.762V31.9375H133.262ZM125 31.9375V31.4375H124.5V31.9375H125ZM125 34.6914H124.5V35.1914H125V34.6914ZM133.262 34.6914H133.762V34.1914H133.262V34.6914ZM133.262 37V37.5H133.762V37H133.262ZM124.109 36.8242L123.906 37.2812L123.917 37.2858L124.109 36.8242ZM123.371 36.332L123.011 36.6789L123.017 36.6856L123.024 36.6922L123.371 36.332ZM122.879 35.5938L122.417 35.7861L122.422 35.7968L122.879 35.5938ZM122.879 25.9258L122.422 25.7227L122.417 25.7335L122.879 25.9258ZM124.109 24.707L124.302 25.1687L124.312 25.1639L124.109 24.707ZM131.855 24.707L131.652 25.1641L131.663 25.1686L131.855 24.707ZM132.582 25.1992L132.222 25.546L132.228 25.5528L132.235 25.5594L132.582 25.1992ZM133.074 25.9258L132.613 26.1181L132.617 26.1289L133.074 25.9258ZM125 26.8281V26.3281H124.5V26.8281H125ZM125 29.6289H124.5V30.1289H125V29.6289ZM130.953 29.6289V30.1289H131.453V29.6289H130.953ZM130.953 26.8281H131.453V26.3281H130.953V26.8281ZM133.262 31.4375H125V32.4375H133.262V31.4375ZM124.5 31.9375V34.6914H125.5V31.9375H124.5ZM125 35.1914H133.262V34.1914H125V35.1914ZM132.762 34.6914V37H133.762V34.6914H132.762ZM133.262 36.5H125V37.5H133.262V36.5ZM125 36.5C124.752 36.5 124.52 36.4538 124.302 36.3627L123.917 37.2858C124.261 37.429 124.623 37.5 125 37.5V36.5ZM124.312 36.3673C124.082 36.2647 123.885 36.1326 123.718 35.9719L123.024 36.6922C123.279 36.9377 123.575 37.1337 123.906 37.2811L124.312 36.3673ZM123.731 35.9852C123.571 35.8183 123.438 35.6215 123.336 35.3907L122.422 35.7968C122.569 36.1285 122.765 36.4239 123.011 36.6789L123.731 35.9852ZM123.34 35.4014C123.25 35.1842 123.203 34.9491 123.203 34.6914H122.203C122.203 35.0743 122.273 35.4408 122.417 35.7861L123.34 35.4014ZM123.203 34.6914V26.8281H122.203V34.6914H123.203ZM123.203 26.8281C123.203 26.5704 123.25 26.3353 123.34 26.1181L122.417 25.7335C122.273 26.0788 122.203 26.4452 122.203 26.8281H123.203ZM123.336 26.1289C123.438 25.8996 123.568 25.7095 123.725 25.5528L123.018 24.8457C122.768 25.0952 122.57 25.3894 122.422 25.7227L123.336 26.1289ZM123.725 25.5528C123.888 25.389 124.079 25.2612 124.302 25.1686L123.917 24.2455C123.577 24.3872 123.276 24.5875 123.018 24.8457L123.725 25.5528ZM124.312 25.1639C124.529 25.0678 124.756 25.0195 125 25.0195V24.0195C124.619 24.0195 124.252 24.0963 123.906 24.2501L124.312 25.1639ZM125 25.0195H130.953V24.0195H125V25.0195ZM130.953 25.0195C131.206 25.0195 131.438 25.0685 131.652 25.1639L132.059 24.2501C131.711 24.0956 131.34 24.0195 130.953 24.0195V25.0195ZM131.663 25.1686C131.884 25.2605 132.068 25.3864 132.222 25.546L132.942 24.8524C132.69 24.5901 132.39 24.3879 132.048 24.2455L131.663 25.1686ZM132.235 25.5594C132.395 25.7131 132.521 25.8974 132.613 26.1181L133.536 25.7335C133.393 25.3916 133.191 25.0916 132.929 24.8391L132.235 25.5594ZM132.617 26.1289C132.713 26.3436 132.762 26.5749 132.762 26.8281H133.762C133.762 26.4408 133.686 26.0705 133.531 25.7227L132.617 26.1289ZM132.762 26.8281V31.9375H133.762V26.8281H132.762ZM124.5 26.8281V29.6289H125.5V26.8281H124.5ZM125 30.1289H130.953V29.1289H125V30.1289ZM131.453 29.6289V26.8281H130.453V29.6289H131.453ZM130.953 26.3281H125V27.3281H130.953V26.3281ZM148.156 37V37.5H148.656V37H148.156ZM145.848 37H145.348V37.5H145.848V37ZM145.848 26.8281H146.348V26.3281H145.848V26.8281ZM139.414 26.8281V26.3281H138.914V26.8281H139.414ZM139.414 37V37.5H139.914V37H139.414ZM137.117 37H136.617V37.5H137.117V37ZM137.117 24.5195V24.0195H136.617V24.5195H137.117ZM139.414 24.5195H139.914V24.0195H139.414V24.5195ZM139.414 26.7227H138.914L139.913 26.7483L139.414 26.7227ZM139.625 25.8672L140.077 26.0801L140.08 26.0751L139.625 25.8672ZM140.117 25.1641L140.464 25.5245L140.464 25.5242L140.117 25.1641ZM140.844 24.6953L141.03 25.1597L141.041 25.1549L140.844 24.6953ZM146.75 24.707L146.547 25.1641L146.558 25.1686L146.75 24.707ZM147.477 25.1992L147.116 25.546L147.123 25.5528L147.13 25.5594L147.477 25.1992ZM147.969 25.9258L147.507 26.1181L147.512 26.1289L147.969 25.9258ZM148.156 36.5H145.848V37.5H148.156V36.5ZM146.348 37V26.8281H145.348V37H146.348ZM145.848 26.3281H139.414V27.3281H145.848V26.3281ZM138.914 26.8281V37H139.914V26.8281H138.914ZM139.414 36.5H137.117V37.5H139.414V36.5ZM137.617 37V24.5195H136.617V37H137.617ZM137.117 25.0195H139.414V24.0195H137.117V25.0195ZM138.914 24.5195V26.7227H139.914V24.5195H138.914ZM139.913 26.7483C139.926 26.5059 139.981 26.2846 140.077 26.0801L139.173 25.6543C139.019 25.981 138.934 26.3301 138.915 26.697L139.913 26.7483ZM140.08 26.0751C140.18 25.855 140.309 25.6733 140.464 25.5245L139.771 24.8036C139.519 25.0454 139.32 25.3325 139.17 25.6593L140.08 26.0751ZM140.464 25.5242C140.628 25.3661 140.816 25.2451 141.029 25.1596L140.658 24.2311C140.325 24.3643 140.028 24.5558 139.77 24.8039L140.464 25.5242ZM141.041 25.1549C141.249 25.0657 141.474 25.0195 141.723 25.0195V24.0195C141.346 24.0195 140.986 24.0905 140.647 24.2357L141.041 25.1549ZM141.723 25.0195H145.848V24.0195H141.723V25.0195ZM145.848 25.0195C146.101 25.0195 146.332 25.0685 146.547 25.1639L146.953 24.2501C146.605 24.0956 146.235 24.0195 145.848 24.0195V25.0195ZM146.558 25.1686C146.778 25.2605 146.963 25.3864 147.116 25.546L147.837 24.8524C147.584 24.5901 147.284 24.3879 146.942 24.2455L146.558 25.1686ZM147.13 25.5594C147.289 25.7131 147.415 25.8974 147.507 26.1181L148.43 25.7335C148.288 25.3916 148.086 25.0916 147.823 24.8391L147.13 25.5594ZM147.512 26.1289C147.607 26.3436 147.656 26.5749 147.656 26.8281H148.656C148.656 26.4408 148.58 26.0705 148.426 25.7227L147.512 26.1289ZM147.656 26.8281V37H148.656V26.8281H147.656ZM151.273 24.5195V24.0195H150.773V24.5195H151.273ZM154.32 24.5195V25.0195H154.82V24.5195H154.32ZM154.32 20.6758V20.1758H153.82V20.6758H154.32ZM156.629 20.6758H157.129V20.1758H156.629V20.6758ZM156.629 24.5195H156.129V25.0195H156.629V24.5195ZM160.73 24.5195H161.23V24.0195H160.73V24.5195ZM160.73 26.8281V27.3281H161.23V26.8281H160.73ZM156.629 26.8281V26.3281H156.129V26.8281H156.629ZM156.629 34.6914H156.129V35.1914H156.629V34.6914ZM160.73 34.6914H161.23V34.1914H160.73V34.6914ZM160.73 37V37.5H161.23V37H160.73ZM155.738 36.8242L155.535 37.2812L155.546 37.2858L155.738 36.8242ZM155 36.332L154.646 36.6856L154.653 36.6922L155 36.332ZM154.496 35.5938L154.034 35.7861L154.039 35.7968L154.496 35.5938ZM154.32 26.8281H154.82V26.3281H154.32V26.8281ZM151.273 26.8281H150.773V27.3281H151.273V26.8281ZM151.273 25.0195H154.32V24.0195H151.273V25.0195ZM154.82 24.5195V20.6758H153.82V24.5195H154.82ZM154.32 21.1758H156.629V20.1758H154.32V21.1758ZM156.129 20.6758V24.5195H157.129V20.6758H156.129ZM156.629 25.0195H160.73V24.0195H156.629V25.0195ZM160.23 24.5195V26.8281H161.23V24.5195H160.23ZM160.73 26.3281H156.629V27.3281H160.73V26.3281ZM156.129 26.8281V34.6914H157.129V26.8281H156.129ZM156.629 35.1914H160.73V34.1914H156.629V35.1914ZM160.23 34.6914V37H161.23V34.6914H160.23ZM160.73 36.5H156.629V37.5H160.73V36.5ZM156.629 36.5C156.381 36.5 156.149 36.4538 155.931 36.3627L155.546 37.2858C155.89 37.429 156.252 37.5 156.629 37.5V36.5ZM155.941 36.3673C155.711 36.2647 155.514 36.1326 155.347 35.9719L154.653 36.6922C154.908 36.9377 155.204 37.1337 155.535 37.2811L155.941 36.3673ZM155.354 35.9785C155.187 35.8123 155.054 35.6177 154.953 35.3907L154.039 35.7968C154.188 36.1323 154.391 36.4299 154.646 36.6856L155.354 35.9785ZM154.958 35.4014C154.867 35.1842 154.82 34.9491 154.82 34.6914H153.82C153.82 35.0743 153.891 35.4408 154.035 35.7861L154.958 35.4014ZM154.82 34.6914V26.8281H153.82V34.6914H154.82ZM154.32 26.3281H151.273V27.3281H154.32V26.3281ZM151.773 26.8281V24.5195H150.773V26.8281H151.773ZM167.012 24.5195H167.512V24.0195H167.012V24.5195ZM167.012 37V37.5H167.512V37H167.012ZM164.703 37H164.203V37.5H164.703V37ZM164.703 24.5195V24.0195H164.203V24.5195H164.703ZM164.586 19.7148V19.2148H164.086V19.7148H164.586ZM167.129 19.7148H167.629V19.2148H167.129V19.7148ZM167.129 22.1172V22.6172H167.629V22.1172H167.129ZM164.586 22.1172H164.086V22.6172H164.586V22.1172ZM166.512 24.5195V37H167.512V24.5195H166.512ZM167.012 36.5H164.703V37.5H167.012V36.5ZM165.203 37V24.5195H164.203V37H165.203ZM164.703 25.0195H167.012V24.0195H164.703V25.0195ZM164.586 20.2148H167.129V19.2148H164.586V20.2148ZM166.629 19.7148V22.1172H167.629V19.7148H166.629ZM167.129 21.6172H164.586V22.6172H167.129V21.6172ZM165.086 22.1172V19.7148H164.086V22.1172H165.086ZM182.023 37V37.5H182.523V37H182.023ZM179.715 37H179.215V37.5H179.715V37ZM179.715 26.8281H180.215V26.3281H179.715V26.8281ZM173.281 26.8281V26.3281H172.781V26.8281H173.281ZM173.281 37V37.5H173.781V37H173.281ZM170.984 37H170.484V37.5H170.984V37ZM170.984 24.5195V24.0195H170.484V24.5195H170.984ZM173.281 24.5195H173.781V24.0195H173.281V24.5195ZM173.281 26.7227H172.781L173.781 26.7483L173.281 26.7227ZM173.492 25.8672L173.945 26.0801L173.947 26.0751L173.492 25.8672ZM173.984 25.1641L174.331 25.5245L174.331 25.5242L173.984 25.1641ZM174.711 24.6953L174.897 25.1597L174.908 25.1549L174.711 24.6953ZM180.617 24.707L180.414 25.1641L180.425 25.1686L180.617 24.707ZM181.344 25.1992L180.984 25.546L180.99 25.5528L180.997 25.5594L181.344 25.1992ZM181.836 25.9258L181.374 26.1181L181.379 26.1289L181.836 25.9258ZM182.023 36.5H179.715V37.5H182.023V36.5ZM180.215 37V26.8281H179.215V37H180.215ZM179.715 26.3281H173.281V27.3281H179.715V26.3281ZM172.781 26.8281V37H173.781V26.8281H172.781ZM173.281 36.5H170.984V37.5H173.281V36.5ZM171.484 37V24.5195H170.484V37H171.484ZM170.984 25.0195H173.281V24.0195H170.984V25.0195ZM172.781 24.5195V26.7227H173.781V24.5195H172.781ZM173.781 26.7483C173.793 26.5059 173.848 26.2846 173.945 26.0801L173.04 25.6543C172.886 25.981 172.801 26.3301 172.782 26.697L173.781 26.7483ZM173.947 26.0751C174.048 25.855 174.176 25.6733 174.331 25.5245L173.638 24.8036C173.386 25.0454 173.187 25.3325 173.037 25.6593L173.947 26.0751ZM174.331 25.5242C174.495 25.3661 174.683 25.2451 174.897 25.1596L174.525 24.2311C174.192 24.3643 173.895 24.5558 173.638 24.8039L174.331 25.5242ZM174.908 25.1549C175.116 25.0657 175.342 25.0195 175.59 25.0195V24.0195C175.213 24.0195 174.853 24.0905 174.514 24.2357L174.908 25.1549ZM175.59 25.0195H179.715V24.0195H175.59V25.0195ZM179.715 25.0195C179.968 25.0195 180.199 25.0685 180.414 25.1639L180.82 24.2501C180.472 24.0956 180.102 24.0195 179.715 24.0195V25.0195ZM180.425 25.1686C180.646 25.2605 180.83 25.3864 180.984 25.546L181.704 24.8524C181.451 24.5901 181.151 24.3879 180.809 24.2455L180.425 25.1686ZM180.997 25.5594C181.157 25.7131 181.282 25.8974 181.374 26.1181L182.297 25.7335C182.155 25.3916 181.953 25.0916 181.691 24.8391L180.997 25.5594ZM181.379 26.1289C181.474 26.3436 181.523 26.5749 181.523 26.8281H182.523C182.523 26.4408 182.447 26.0705 182.293 25.7227L181.379 26.1289ZM181.523 26.8281V37H182.523V26.8281H181.523ZM186.043 25.9258L185.586 25.7227L185.581 25.7335L186.043 25.9258ZM187.273 24.707L187.466 25.1687L187.477 25.1639L187.273 24.707ZM193.168 24.6953L192.971 25.155L192.982 25.1596L193.168 24.6953ZM193.883 25.1641L193.529 25.5176L193.536 25.5244L193.543 25.5309L193.883 25.1641ZM194.387 25.8672L193.932 26.0751L193.936 26.083L193.94 26.0908L194.387 25.8672ZM194.598 26.7227L194.098 26.7355L195.098 26.7227H194.598ZM194.598 24.5195V24.0195H194.098V24.5195H194.598ZM196.906 24.5195H197.406V24.0195H196.906V24.5195ZM196.719 40.6328L196.262 40.4297L196.257 40.4405L196.719 40.6328ZM196.227 41.3594L195.88 40.9992L195.873 41.0058L195.866 41.0126L196.227 41.3594ZM195.5 41.8516L195.308 41.3899L195.297 41.3947L195.5 41.8516ZM187.309 42.0391H186.809V42.5391H187.309V42.0391ZM187.309 39.7305V39.2305H186.809V39.7305H187.309ZM194.598 39.7305V40.2305H195.098V39.7305H194.598ZM194.598 36.5195H195.098V36.0195H194.598V36.5195ZM187.273 36.3438L187.07 36.8008L187.081 36.8053L187.273 36.3438ZM186.535 35.8516L186.175 36.1984L186.182 36.2052L186.188 36.2117L186.535 35.8516ZM186.043 35.1133L185.581 35.3056L185.586 35.3164L186.043 35.1133ZM194.598 34.2109V34.7109H195.098V34.2109H194.598ZM194.598 26.8281H195.098V26.3281H194.598V26.8281ZM188.164 26.8281V26.3281H187.664V26.8281H188.164ZM188.164 34.2109H187.664V34.7109H188.164V34.2109ZM186.367 26.8281C186.367 26.5704 186.414 26.3353 186.505 26.1181L185.581 25.7335C185.438 26.0788 185.367 26.4452 185.367 26.8281H186.367ZM186.5 26.1289C186.602 25.8996 186.732 25.7095 186.889 25.5528L186.182 24.8457C185.932 25.0952 185.734 25.3894 185.586 25.7227L186.5 26.1289ZM186.889 25.5528C187.052 25.389 187.243 25.2612 187.466 25.1686L187.081 24.2455C186.741 24.3872 186.44 24.5875 186.182 24.8457L186.889 25.5528ZM187.477 25.1639C187.693 25.0678 187.92 25.0195 188.164 25.0195V24.0195C187.783 24.0195 187.417 24.0963 187.07 24.2501L187.477 25.1639ZM188.164 25.0195H192.301V24.0195H188.164V25.0195ZM192.301 25.0195C192.539 25.0195 192.761 25.065 192.971 25.1549L193.365 24.2357C193.028 24.0912 192.672 24.0195 192.301 24.0195V25.0195ZM192.982 25.1596C193.194 25.2444 193.375 25.3636 193.529 25.5176L194.236 24.8105C193.984 24.5583 193.688 24.3649 193.354 24.2311L192.982 25.1596ZM193.543 25.5309C193.703 25.6793 193.833 25.8589 193.932 26.0751L194.841 25.6593C194.69 25.3286 194.484 25.0394 194.223 24.7972L193.543 25.5309ZM193.94 26.0908C194.039 26.2891 194.092 26.5021 194.098 26.7355L195.097 26.7098C195.088 26.3339 195 25.9765 194.834 25.6436L193.94 26.0908ZM195.098 26.7227V24.5195H194.098V26.7227H195.098ZM194.598 25.0195H196.906V24.0195H194.598V25.0195ZM196.406 24.5195V39.7305H197.406V24.5195H196.406ZM196.406 39.7305C196.406 39.9837 196.357 40.215 196.262 40.4297L197.176 40.8359C197.33 40.4881 197.406 40.1178 197.406 39.7305H196.406ZM196.257 40.4405C196.165 40.6612 196.039 40.8455 195.88 40.9992L196.573 41.7195C196.836 41.467 197.038 41.167 197.18 40.8251L196.257 40.4405ZM195.866 41.0126C195.713 41.1722 195.528 41.2981 195.308 41.39L195.692 42.3131C196.034 42.1707 196.334 41.9685 196.587 41.7062L195.866 41.0126ZM195.297 41.3947C195.082 41.4901 194.851 41.5391 194.598 41.5391V42.5391C194.985 42.5391 195.355 42.463 195.703 42.3085L195.297 41.3947ZM194.598 41.5391H187.309V42.5391H194.598V41.5391ZM187.809 42.0391V39.7305H186.809V42.0391H187.809ZM187.309 40.2305H194.598V39.2305H187.309V40.2305ZM195.098 39.7305V36.5195H194.098V39.7305H195.098ZM194.598 36.0195H188.164V37.0195H194.598V36.0195ZM188.164 36.0195C187.916 36.0195 187.684 35.9734 187.466 35.8822L187.081 36.8053C187.425 36.9485 187.787 37.0195 188.164 37.0195V36.0195ZM187.477 35.8868C187.246 35.7843 187.049 35.6521 186.882 35.4914L186.188 36.2117C186.443 36.4572 186.739 36.6532 187.07 36.8007L187.477 35.8868ZM186.895 35.5047C186.735 35.3378 186.602 35.141 186.5 34.9102L185.586 35.3164C185.733 35.648 185.929 35.9434 186.175 36.1984L186.895 35.5047ZM186.505 34.921C186.414 34.7038 186.367 34.4687 186.367 34.2109H185.367C185.367 34.5938 185.438 34.9603 185.581 35.3056L186.505 34.921ZM186.367 34.2109V26.8281H185.367V34.2109H186.367ZM195.098 34.2109V26.8281H194.098V34.2109H195.098ZM194.598 26.3281H188.164V27.3281H194.598V26.3281ZM187.664 26.8281V34.2109H188.664V26.8281H187.664ZM188.164 34.7109H194.598V33.7109H188.164V34.7109Z" fill="white"/>
</g>
<defs>
<clipPath id="clip0_1_5">
<rect width="227" height="60" fill="white"/>
</clipPath>
</defs>
</svg>
