<svg width="381" height="211" viewBox="0 0 381 211" fill="none" xmlns="http://www.w3.org/2000/svg">
<path d="M295.127 75H85.873C80.9669 75 76.9896 79.0294 76.9896 84V126C76.9896 130.971 80.9669 135 85.873 135H295.127C300.033 135 304.01 130.971 304.01 126V84C304.01 79.0294 300.033 75 295.127 75Z" fill="#FFD743" stroke="black" stroke-width="2"/>
<rect x="78" y="75" width="230" height="60" rx="9" fill="#07BB9C" stroke="black" stroke-width="2"/>
<rect x="78" y="75" width="230" height="60" rx="9" fill="black" stroke="black" stroke-width="2"/>
<path d="M109.73 104.805C109.402 104.805 109.09 104.742 108.793 104.617C108.504 104.484 108.25 104.312 108.031 104.102C107.812 103.883 107.641 103.629 107.516 103.34C107.391 103.043 107.328 102.73 107.328 102.402V97.5977C107.328 97.2695 107.391 96.9609 107.516 96.6719C107.641 96.375 107.812 96.1211 108.031 95.9102C108.25 95.6914 108.504 95.5195 108.793 95.3945C109.09 95.2617 109.402 95.1953 109.73 95.1953H117.887C118.215 95.1953 118.523 95.2617 118.812 95.3945C119.109 95.5195 119.367 95.6914 119.586 95.9102C119.805 96.1211 119.977 96.375 120.102 96.6719C120.227 96.9609 120.289 97.2695 120.289 97.5977V99.7656H117.887V97.5977H109.73V102.402H117.887C118.215 102.402 118.523 102.465 118.812 102.59C119.109 102.715 119.367 102.887 119.586 103.105C119.805 103.324 119.977 103.582 120.102 103.879C120.227 104.168 120.289 104.477 120.289 104.805V109.598C120.289 109.926 120.227 110.238 120.102 110.535C119.977 110.824 119.805 111.078 119.586 111.297C119.367 111.516 119.109 111.688 118.812 111.812C118.523 111.938 118.215 112 117.887 112H109.496C109.168 112 108.855 111.938 108.559 111.812C108.27 111.688 108.016 111.516 107.797 111.297C107.578 111.078 107.406 110.824 107.281 110.535C107.156 110.238 107.094 109.926 107.094 109.598V107.441H109.496V109.598H117.887V104.805H109.73ZM123.664 99.5195H126.711V95.6758H129.02V99.5195H133.121V101.828H129.02V109.691H133.121V112H129.02C128.707 112 128.41 111.941 128.129 111.824C127.848 111.699 127.602 111.535 127.391 111.332C127.18 111.121 127.012 110.875 126.887 110.594C126.77 110.312 126.711 110.012 126.711 109.691V101.828H123.664V99.5195ZM136.977 106.551C136.977 106.23 137.035 105.934 137.152 105.66C137.277 105.379 137.441 105.133 137.645 104.922C137.855 104.711 138.102 104.547 138.383 104.43C138.664 104.305 138.961 104.242 139.273 104.242H145.227V101.828H137.691V99.5195H145.227C145.547 99.5195 145.848 99.582 146.129 99.707C146.41 99.8242 146.652 99.9883 146.855 100.199C147.066 100.402 147.23 100.645 147.348 100.926C147.473 101.207 147.535 101.508 147.535 101.828V112H145.227V109.891C145.203 110.18 145.125 110.453 144.992 110.711C144.859 110.969 144.688 111.195 144.477 111.391C144.273 111.578 144.039 111.727 143.773 111.836C143.508 111.945 143.227 112 142.93 112H139.273C138.961 112 138.664 111.941 138.383 111.824C138.102 111.699 137.855 111.535 137.645 111.332C137.441 111.121 137.277 110.875 137.152 110.594C137.035 110.312 136.977 110.012 136.977 109.691V106.551ZM139.273 109.691H145.227V106.551H139.273V109.691ZM153.688 101.828V112H151.391V99.5195H153.688V101.723C153.703 101.418 153.773 101.133 153.898 100.867C154.023 100.594 154.188 100.359 154.391 100.164C154.602 99.9609 154.844 99.8047 155.117 99.6953C155.391 99.5781 155.684 99.5195 155.996 99.5195H158.445C158.766 99.5195 159.062 99.582 159.336 99.707C159.617 99.8242 159.863 99.9883 160.074 100.199C160.285 100.402 160.449 100.645 160.566 100.926C160.691 101.207 160.754 101.508 160.754 101.828V103.938H158.445V101.828H153.688ZM162.898 99.5195H165.945V95.6758H168.254V99.5195H172.355V101.828H168.254V109.691H172.355V112H168.254C167.941 112 167.645 111.941 167.363 111.824C167.082 111.699 166.836 111.535 166.625 111.332C166.414 111.121 166.246 110.875 166.121 110.594C166.004 110.312 165.945 110.012 165.945 109.691V101.828H162.898V99.5195ZM196.918 101.195C196.918 103.539 195.918 104.875 193.918 105.203L197.082 112H194.422L191.305 105.285H186.043V112H183.641V95.1953H192.84C195.559 95.1953 196.918 96.5586 196.918 99.2852V101.195ZM186.043 102.883H192.711C193.352 102.883 193.812 102.742 194.094 102.461C194.375 102.18 194.516 101.719 194.516 101.078V99.4023C194.516 98.7617 194.375 98.3008 194.094 98.0195C193.812 97.7383 193.352 97.5977 192.711 97.5977H186.043V102.883ZM211.262 106.938H203V109.691H211.262V112H203C202.688 112 202.391 111.941 202.109 111.824C201.828 111.699 201.582 111.535 201.371 111.332C201.168 111.121 201.004 110.875 200.879 110.594C200.762 110.312 200.703 110.012 200.703 109.691V101.828C200.703 101.508 200.762 101.207 200.879 100.926C201.004 100.645 201.168 100.402 201.371 100.199C201.582 99.9883 201.828 99.8242 202.109 99.707C202.391 99.582 202.688 99.5195 203 99.5195H208.953C209.273 99.5195 209.574 99.582 209.855 99.707C210.137 99.8242 210.379 99.9883 210.582 100.199C210.793 100.402 210.957 100.645 211.074 100.926C211.199 101.207 211.262 101.508 211.262 101.828V106.938ZM203 101.828V104.629H208.953V101.828H203ZM226.156 112H223.848V101.828H217.414V112H215.117V99.5195H217.414V101.723C217.43 101.418 217.5 101.133 217.625 100.867C217.75 100.594 217.914 100.359 218.117 100.164C218.328 99.9609 218.57 99.8047 218.844 99.6953C219.117 99.5781 219.41 99.5195 219.723 99.5195H223.848C224.168 99.5195 224.469 99.582 224.75 99.707C225.031 99.8242 225.273 99.9883 225.477 100.199C225.688 100.402 225.852 100.645 225.969 100.926C226.094 101.207 226.156 101.508 226.156 101.828V112ZM229.273 99.5195H232.32V95.6758H234.629V99.5195H238.73V101.828H234.629V109.691H238.73V112H234.629C234.316 112 234.02 111.941 233.738 111.824C233.457 111.699 233.211 111.535 233 111.332C232.789 111.121 232.621 110.875 232.496 110.594C232.379 110.312 232.32 110.012 232.32 109.691V101.828H229.273V99.5195ZM245.012 99.5195V112H242.703V99.5195H245.012ZM242.586 94.7148H245.129V97.1172H242.586V94.7148ZM260.023 112H257.715V101.828H251.281V112H248.984V99.5195H251.281V101.723C251.297 101.418 251.367 101.133 251.492 100.867C251.617 100.594 251.781 100.359 251.984 100.164C252.195 99.9609 252.438 99.8047 252.711 99.6953C252.984 99.5781 253.277 99.5195 253.59 99.5195H257.715C258.035 99.5195 258.336 99.582 258.617 99.707C258.898 99.8242 259.141 99.9883 259.344 100.199C259.555 100.402 259.719 100.645 259.836 100.926C259.961 101.207 260.023 101.508 260.023 101.828V112ZM263.867 101.828C263.867 101.508 263.926 101.207 264.043 100.926C264.168 100.645 264.332 100.402 264.535 100.199C264.746 99.9883 264.992 99.8242 265.273 99.707C265.555 99.582 265.852 99.5195 266.164 99.5195H270.301C270.605 99.5195 270.895 99.5781 271.168 99.6953C271.441 99.8047 271.68 99.9609 271.883 100.164C272.094 100.359 272.262 100.594 272.387 100.867C272.52 101.133 272.59 101.418 272.598 101.723V99.5195H274.906V114.73C274.906 115.051 274.844 115.352 274.719 115.633C274.602 115.914 274.438 116.156 274.227 116.359C274.023 116.57 273.781 116.734 273.5 116.852C273.219 116.977 272.918 117.039 272.598 117.039H265.309V114.73H272.598V111.52H266.164C265.852 111.52 265.555 111.461 265.273 111.344C264.992 111.219 264.746 111.055 264.535 110.852C264.332 110.641 264.168 110.395 264.043 110.113C263.926 109.832 263.867 109.531 263.867 109.211V101.828ZM272.598 109.211V101.828H266.164V109.211H272.598Z" fill="white"/>
<path d="M108.793 104.617L108.584 105.072L108.592 105.075L108.599 105.078L108.793 104.617ZM108.031 104.102L107.678 104.455L107.684 104.461L108.031 104.102ZM107.516 103.34L107.055 103.534L107.057 103.538L107.516 103.34ZM107.516 96.6719L107.975 96.8703L107.976 96.8659L107.516 96.6719ZM108.031 95.9102L108.378 96.2701L108.385 96.2637L108.031 95.9102ZM108.793 95.3945L108.991 95.8535L108.997 95.8509L108.793 95.3945ZM118.812 95.3945L118.604 95.8489L118.611 95.8522L118.618 95.8553L118.812 95.3945ZM119.586 95.9102L119.232 96.2638L119.239 96.2701L119.586 95.9102ZM120.102 96.6719L119.641 96.8659L119.643 96.8703L120.102 96.6719ZM120.289 99.7656V100.266H120.789V99.7656H120.289ZM117.887 99.7656H117.387V100.266H117.887V99.7656ZM117.887 97.5977H118.387V97.0977H117.887V97.5977ZM109.73 97.5977V97.0977H109.23V97.5977H109.73ZM109.73 102.402H109.23V102.902H109.73V102.402ZM118.812 102.59L118.614 103.049L118.618 103.051L118.812 102.59ZM120.102 103.879L119.641 104.073L119.643 104.077L120.102 103.879ZM120.102 110.535L120.561 110.734L120.562 110.729L120.102 110.535ZM118.812 111.812L118.618 111.352L118.614 111.354L118.812 111.812ZM108.559 111.812L108.36 112.271L108.365 112.273L108.559 111.812ZM107.281 110.535L106.82 110.729L106.822 110.734L107.281 110.535ZM107.094 107.441V106.941H106.594V107.441H107.094ZM109.496 107.441H109.996V106.941H109.496V107.441ZM109.496 109.598H108.996V110.098H109.496V109.598ZM117.887 109.598V110.098H118.387V109.598H117.887ZM117.887 104.805H118.387V104.305H117.887V104.805ZM109.73 104.305C109.468 104.305 109.221 104.255 108.987 104.156L108.599 105.078C108.958 105.229 109.337 105.305 109.73 105.305V104.305ZM109.002 104.163C108.761 104.052 108.555 103.912 108.378 103.742L107.684 104.461C107.945 104.713 108.246 104.916 108.584 105.072L109.002 104.163ZM108.385 103.748C108.211 103.575 108.075 103.374 107.975 103.141L107.057 103.538C107.206 103.884 107.414 104.191 107.678 104.455L108.385 103.748ZM107.976 103.146C107.878 102.912 107.828 102.665 107.828 102.402H106.828C106.828 102.796 106.903 103.174 107.055 103.534L107.976 103.146ZM107.828 102.402V97.5977H106.828V102.402H107.828ZM107.828 97.5977C107.828 97.3349 107.878 97.0941 107.975 96.8703L107.057 96.4734C106.903 96.8278 106.828 97.2042 106.828 97.5977H107.828ZM107.976 96.8659C108.077 96.6277 108.211 96.4312 108.378 96.2701L107.684 95.5502C107.414 95.811 107.204 96.1223 107.055 96.4778L107.976 96.8659ZM108.385 96.2637C108.558 96.0904 108.759 95.9539 108.991 95.8535L108.595 94.9356C108.249 95.0852 107.942 95.2924 107.678 95.5566L108.385 96.2637ZM108.997 95.8509C109.229 95.7471 109.472 95.6953 109.73 95.6953V94.6953C109.333 94.6953 108.95 94.7763 108.589 94.9381L108.997 95.8509ZM109.73 95.6953H117.887V94.6953H109.73V95.6953ZM117.887 95.6953C118.145 95.6953 118.382 95.7471 118.604 95.8489L119.021 94.9402C118.665 94.7763 118.285 94.6953 117.887 94.6953V95.6953ZM118.618 95.8553C118.858 95.9563 119.061 96.0926 119.232 96.2637L119.939 95.5566C119.673 95.2902 119.361 95.0828 119.007 94.9337L118.618 95.8553ZM119.239 96.2701C119.406 96.4312 119.54 96.6277 119.641 96.8659L120.562 96.4778C120.413 96.1223 120.203 95.811 119.933 95.5502L119.239 96.2701ZM119.643 96.8703C119.739 97.0941 119.789 97.3349 119.789 97.5977H120.789C120.789 97.2042 120.714 96.8278 120.56 96.4734L119.643 96.8703ZM119.789 97.5977V99.7656H120.789V97.5977H119.789ZM120.289 99.2656H117.887V100.266H120.289V99.2656ZM118.387 99.7656V97.5977H117.387V99.7656H118.387ZM117.887 97.0977H109.73V98.0977H117.887V97.0977ZM109.23 97.5977V102.402H110.23V97.5977H109.23ZM109.73 102.902H117.887V101.902H109.73V102.902ZM117.887 102.902C118.15 102.902 118.39 102.952 118.614 103.049L119.011 102.131C118.657 101.978 118.28 101.902 117.887 101.902V102.902ZM118.618 103.051C118.858 103.152 119.061 103.288 119.232 103.459L119.939 102.752C119.673 102.486 119.361 102.278 119.007 102.129L118.618 103.051ZM119.232 103.459C119.404 103.63 119.54 103.833 119.641 104.073L120.562 103.685C120.413 103.331 120.206 103.018 119.939 102.752L119.232 103.459ZM119.643 104.077C119.739 104.301 119.789 104.542 119.789 104.805H120.789C120.789 104.411 120.714 104.035 120.56 103.68L119.643 104.077ZM119.789 104.805V109.598H120.789V104.805H119.789ZM119.789 109.598C119.789 109.86 119.739 110.107 119.641 110.341L120.562 110.729C120.714 110.37 120.789 109.991 120.789 109.598H119.789ZM119.643 110.337C119.542 110.569 119.406 110.77 119.232 110.943L119.939 111.65C120.204 111.386 120.411 111.079 120.56 110.734L119.643 110.337ZM119.232 110.943C119.061 111.114 118.858 111.251 118.618 111.352L119.007 112.273C119.361 112.124 119.673 111.917 119.939 111.65L119.232 110.943ZM118.614 111.354C118.39 111.45 118.15 111.5 117.887 111.5V112.5C118.28 112.5 118.657 112.425 119.011 112.271L118.614 111.354ZM117.887 111.5H109.496V112.5H117.887V111.5ZM109.496 111.5C109.233 111.5 108.987 111.45 108.753 111.352L108.365 112.273C108.724 112.425 109.103 112.5 109.496 112.5V111.5ZM108.757 111.354C108.525 111.253 108.324 111.117 108.15 110.943L107.443 111.65C107.707 111.915 108.014 112.122 108.36 112.271L108.757 111.354ZM108.15 110.943C107.977 110.77 107.841 110.569 107.74 110.337L106.822 110.734C106.972 111.079 107.179 111.386 107.443 111.65L108.15 110.943ZM107.742 110.341C107.643 110.107 107.594 109.86 107.594 109.598H106.594C106.594 109.991 106.669 110.37 106.82 110.729L107.742 110.341ZM107.594 109.598V107.441H106.594V109.598H107.594ZM107.094 107.941H109.496V106.941H107.094V107.941ZM108.996 107.441V109.598H109.996V107.441H108.996ZM109.496 110.098H117.887V109.098H109.496V110.098ZM118.387 109.598V104.805H117.387V109.598H118.387ZM117.887 104.305H109.73V105.305H117.887V104.305ZM123.664 99.5195V99.0195H123.164V99.5195H123.664ZM126.711 99.5195V100.02H127.211V99.5195H126.711ZM126.711 95.6758V95.1758H126.211V95.6758H126.711ZM129.02 95.6758H129.52V95.1758H129.02V95.6758ZM129.02 99.5195H128.52V100.02H129.02V99.5195ZM133.121 99.5195H133.621V99.0195H133.121V99.5195ZM133.121 101.828V102.328H133.621V101.828H133.121ZM129.02 101.828V101.328H128.52V101.828H129.02ZM129.02 109.691H128.52V110.191H129.02V109.691ZM133.121 109.691H133.621V109.191H133.121V109.691ZM133.121 112V112.5H133.621V112H133.121ZM128.129 111.824L127.926 112.281L127.937 112.286L128.129 111.824ZM127.391 111.332L127.037 111.686L127.044 111.692L127.391 111.332ZM126.887 110.594L126.425 110.786L126.43 110.797L126.887 110.594ZM126.711 101.828H127.211V101.328H126.711V101.828ZM123.664 101.828H123.164V102.328H123.664V101.828ZM123.664 100.02H126.711V99.0195H123.664V100.02ZM127.211 99.5195V95.6758H126.211V99.5195H127.211ZM126.711 96.1758H129.02V95.1758H126.711V96.1758ZM128.52 95.6758V99.5195H129.52V95.6758H128.52ZM129.02 100.02H133.121V99.0195H129.02V100.02ZM132.621 99.5195V101.828H133.621V99.5195H132.621ZM133.121 101.328H129.02V102.328H133.121V101.328ZM128.52 101.828V109.691H129.52V101.828H128.52ZM129.02 110.191H133.121V109.191H129.02V110.191ZM132.621 109.691V112H133.621V109.691H132.621ZM133.121 111.5H129.02V112.5H133.121V111.5ZM129.02 111.5C128.771 111.5 128.54 111.454 128.321 111.363L127.937 112.286C128.28 112.429 128.643 112.5 129.02 112.5V111.5ZM128.332 111.367C128.101 111.265 127.904 111.133 127.737 110.972L127.044 111.692C127.299 111.938 127.594 112.134 127.926 112.281L128.332 111.367ZM127.744 110.978C127.578 110.812 127.445 110.618 127.344 110.391L126.43 110.797C126.579 111.132 126.781 111.43 127.037 111.686L127.744 110.978ZM127.348 110.401C127.258 110.184 127.211 109.949 127.211 109.691H126.211C126.211 110.074 126.281 110.441 126.425 110.786L127.348 110.401ZM127.211 109.691V101.828H126.211V109.691H127.211ZM126.711 101.328H123.664V102.328H126.711V101.328ZM124.164 101.828V99.5195H123.164V101.828H124.164ZM137.152 105.66L136.695 105.457L136.693 105.463L137.152 105.66ZM137.645 104.922L137.291 104.568L137.284 104.575L137.645 104.922ZM138.383 104.43L138.575 104.891L138.586 104.887L138.383 104.43ZM145.227 104.242V104.742H145.727V104.242H145.227ZM145.227 101.828H145.727V101.328H145.227V101.828ZM137.691 101.828H137.191V102.328H137.691V101.828ZM137.691 99.5195V99.0195H137.191V99.5195H137.691ZM146.129 99.707L145.926 100.164L145.937 100.169L146.129 99.707ZM146.855 100.199L146.495 100.546L146.502 100.553L146.509 100.559L146.855 100.199ZM147.348 100.926L146.886 101.118L146.891 101.129L147.348 100.926ZM147.535 112V112.5H148.035V112H147.535ZM145.227 112H144.727V112.5H145.227V112ZM145.227 109.891H145.727L144.728 109.85L145.227 109.891ZM144.477 111.391L144.816 111.758L144.816 111.758L144.477 111.391ZM143.773 111.836L143.964 112.298L143.773 111.836ZM138.383 111.824L138.18 112.281L138.191 112.286L138.383 111.824ZM137.645 111.332L137.284 111.679L137.291 111.686L137.298 111.692L137.645 111.332ZM137.152 110.594L136.691 110.786L136.695 110.797L137.152 110.594ZM139.273 109.691H138.773V110.191H139.273V109.691ZM145.227 109.691V110.191H145.727V109.691H145.227ZM145.227 106.551H145.727V106.051H145.227V106.551ZM139.273 106.551V106.051H138.773V106.551H139.273ZM137.477 106.551C137.477 106.293 137.523 106.064 137.612 105.857L136.693 105.463C136.547 105.804 136.477 106.168 136.477 106.551H137.477ZM137.609 105.863C137.712 105.632 137.844 105.436 138.005 105.269L137.284 104.575C137.039 104.83 136.843 105.125 136.695 105.457L137.609 105.863ZM137.998 105.275C138.162 105.112 138.353 104.984 138.575 104.891L138.191 103.968C137.85 104.11 137.549 104.31 137.291 104.568L137.998 105.275ZM138.586 104.887C138.802 104.79 139.03 104.742 139.273 104.742V103.742C138.892 103.742 138.526 103.819 138.18 103.973L138.586 104.887ZM139.273 104.742H145.227V103.742H139.273V104.742ZM145.727 104.242V101.828H144.727V104.242H145.727ZM145.227 101.328H137.691V102.328H145.227V101.328ZM138.191 101.828V99.5195H137.191V101.828H138.191ZM137.691 100.02H145.227V99.0195H137.691V100.02ZM145.227 100.02C145.48 100.02 145.711 100.069 145.926 100.164L146.332 99.2501C145.984 99.0956 145.614 99.0195 145.227 99.0195V100.02ZM145.937 100.169C146.157 100.261 146.342 100.386 146.495 100.546L147.216 99.8524C146.963 99.5901 146.663 99.3879 146.321 99.2455L145.937 100.169ZM146.509 100.559C146.668 100.713 146.794 100.897 146.886 101.118L147.809 100.733C147.667 100.392 147.465 100.092 147.202 99.8391L146.509 100.559ZM146.891 101.129C146.986 101.344 147.035 101.575 147.035 101.828H148.035C148.035 101.441 147.959 101.071 147.805 100.723L146.891 101.129ZM147.035 101.828V112H148.035V101.828H147.035ZM147.535 111.5H145.227V112.5H147.535V111.5ZM145.727 112V109.891H144.727V112H145.727ZM144.728 109.85C144.71 110.073 144.65 110.283 144.548 110.482L145.437 110.94C145.6 110.623 145.696 110.286 145.725 109.931L144.728 109.85ZM144.548 110.482C144.441 110.689 144.305 110.868 144.137 111.024L144.816 111.758C145.07 111.522 145.277 111.249 145.437 110.94L144.548 110.482ZM144.137 111.023C143.98 111.169 143.796 111.286 143.583 111.374L143.964 112.298C144.282 112.167 144.567 111.987 144.816 111.758L144.137 111.023ZM143.583 111.374C143.38 111.457 143.163 111.5 142.93 111.5V112.5C143.29 112.5 143.636 112.433 143.964 112.298L143.583 111.374ZM142.93 111.5H139.273V112.5H142.93V111.5ZM139.273 111.5C139.025 111.5 138.794 111.454 138.575 111.363L138.191 112.286C138.534 112.429 138.897 112.5 139.273 112.5V111.5ZM138.586 111.367C138.355 111.265 138.158 111.133 137.991 110.972L137.298 111.692C137.553 111.938 137.848 112.134 138.18 112.281L138.586 111.367ZM138.005 110.985C137.844 110.818 137.712 110.621 137.609 110.391L136.695 110.797C136.843 111.129 137.039 111.424 137.284 111.679L138.005 110.985ZM137.614 110.401C137.523 110.184 137.477 109.949 137.477 109.691H136.477C136.477 110.074 136.547 110.441 136.691 110.786L137.614 110.401ZM137.477 109.691V106.551H136.477V109.691H137.477ZM139.273 110.191H145.227V109.191H139.273V110.191ZM145.727 109.691V106.551H144.727V109.691H145.727ZM145.227 106.051H139.273V107.051H145.227V106.051ZM138.773 106.551V109.691H139.773V106.551H138.773ZM153.688 101.828V101.328H153.188V101.828H153.688ZM153.688 112V112.5H154.188V112H153.688ZM151.391 112H150.891V112.5H151.391V112ZM151.391 99.5195V99.0195H150.891V99.5195H151.391ZM153.688 99.5195H154.188V99.0195H153.688V99.5195ZM153.688 101.723H153.188L154.187 101.748L153.688 101.723ZM153.898 100.867L154.351 101.08L154.353 101.075L153.898 100.867ZM154.391 100.164L154.737 100.524L154.737 100.524L154.391 100.164ZM155.117 99.6953L155.303 100.16L155.314 100.155L155.117 99.6953ZM159.336 99.707L159.128 100.162L159.136 100.165L159.144 100.169L159.336 99.707ZM160.074 100.199L159.721 100.553L159.727 100.559L160.074 100.199ZM160.566 100.926L160.105 101.118L160.11 101.129L160.566 100.926ZM160.754 103.938V104.438H161.254V103.938H160.754ZM158.445 103.938H157.945V104.438H158.445V103.938ZM158.445 101.828H158.945V101.328H158.445V101.828ZM153.188 101.828V112H154.188V101.828H153.188ZM153.688 111.5H151.391V112.5H153.688V111.5ZM151.891 112V99.5195H150.891V112H151.891ZM151.391 100.02H153.688V99.0195H151.391V100.02ZM153.188 99.5195V101.723H154.188V99.5195H153.188ZM154.187 101.748C154.199 101.506 154.255 101.285 154.351 101.08L153.446 100.654C153.292 100.981 153.207 101.33 153.188 101.697L154.187 101.748ZM154.353 101.075C154.454 100.855 154.582 100.673 154.737 100.524L154.044 99.8036C153.793 100.045 153.593 100.333 153.444 100.659L154.353 101.075ZM154.737 100.524C154.902 100.366 155.089 100.245 155.303 100.16L154.931 99.2311C154.598 99.3643 154.302 99.5558 154.044 99.8039L154.737 100.524ZM155.314 100.155C155.522 100.066 155.748 100.02 155.996 100.02V99.0195C155.619 99.0195 155.259 99.0905 154.92 99.2357L155.314 100.155ZM155.996 100.02H158.445V99.0195H155.996V100.02ZM158.445 100.02C158.699 100.02 158.924 100.069 159.128 100.162L159.544 99.2523C159.201 99.0955 158.833 99.0195 158.445 99.0195V100.02ZM159.144 100.169C159.366 100.261 159.557 100.389 159.721 100.553L160.428 99.8457C160.17 99.5875 159.868 99.3872 159.528 99.2455L159.144 100.169ZM159.727 100.559C159.887 100.713 160.013 100.897 160.105 101.118L161.028 100.733C160.886 100.392 160.683 100.092 160.421 99.8391L159.727 100.559ZM160.11 101.129C160.205 101.344 160.254 101.575 160.254 101.828H161.254C161.254 101.441 161.178 101.071 161.023 100.723L160.11 101.129ZM160.254 101.828V103.938H161.254V101.828H160.254ZM160.754 103.438H158.445V104.438H160.754V103.438ZM158.945 103.938V101.828H157.945V103.938H158.945ZM158.445 101.328H153.688V102.328H158.445V101.328ZM162.898 99.5195V99.0195H162.398V99.5195H162.898ZM165.945 99.5195V100.02H166.445V99.5195H165.945ZM165.945 95.6758V95.1758H165.445V95.6758H165.945ZM168.254 95.6758H168.754V95.1758H168.254V95.6758ZM168.254 99.5195H167.754V100.02H168.254V99.5195ZM172.355 99.5195H172.855V99.0195H172.355V99.5195ZM172.355 101.828V102.328H172.855V101.828H172.355ZM168.254 101.828V101.328H167.754V101.828H168.254ZM168.254 109.691H167.754V110.191H168.254V109.691ZM172.355 109.691H172.855V109.191H172.355V109.691ZM172.355 112V112.5H172.855V112H172.355ZM167.363 111.824L167.16 112.281L167.171 112.286L167.363 111.824ZM166.625 111.332L166.271 111.686L166.278 111.692L166.625 111.332ZM166.121 110.594L165.659 110.786L165.664 110.797L166.121 110.594ZM165.945 101.828H166.445V101.328H165.945V101.828ZM162.898 101.828H162.398V102.328H162.898V101.828ZM162.898 100.02H165.945V99.0195H162.898V100.02ZM166.445 99.5195V95.6758H165.445V99.5195H166.445ZM165.945 96.1758H168.254V95.1758H165.945V96.1758ZM167.754 95.6758V99.5195H168.754V95.6758H167.754ZM168.254 100.02H172.355V99.0195H168.254V100.02ZM171.855 99.5195V101.828H172.855V99.5195H171.855ZM172.355 101.328H168.254V102.328H172.355V101.328ZM167.754 101.828V109.691H168.754V101.828H167.754ZM168.254 110.191H172.355V109.191H168.254V110.191ZM171.855 109.691V112H172.855V109.691H171.855ZM172.355 111.5H168.254V112.5H172.355V111.5ZM168.254 111.5C168.006 111.5 167.774 111.454 167.556 111.363L167.171 112.286C167.515 112.429 167.877 112.5 168.254 112.5V111.5ZM167.566 111.367C167.336 111.265 167.139 111.133 166.972 110.972L166.278 111.692C166.533 111.938 166.829 112.134 167.16 112.281L167.566 111.367ZM166.979 110.978C166.812 110.812 166.679 110.618 166.578 110.391L165.664 110.797C165.813 111.132 166.016 111.43 166.271 111.686L166.979 110.978ZM166.583 110.401C166.492 110.184 166.445 109.949 166.445 109.691H165.445C165.445 110.074 165.516 110.441 165.66 110.786L166.583 110.401ZM166.445 109.691V101.828H165.445V109.691H166.445ZM165.945 101.328H162.898V102.328H165.945V101.328ZM163.398 101.828V99.5195H162.398V101.828H163.398ZM193.918 105.203L193.837 104.71L193.186 104.816L193.465 105.414L193.918 105.203ZM197.082 112V112.5H197.866L197.535 111.789L197.082 112ZM194.422 112L193.968 112.211L194.103 112.5H194.422V112ZM191.305 105.285L191.758 105.075L191.624 104.785H191.305V105.285ZM186.043 105.285V104.785H185.543V105.285H186.043ZM186.043 112V112.5H186.543V112H186.043ZM183.641 112H183.141V112.5H183.641V112ZM183.641 95.1953V94.6953H183.141V95.1953H183.641ZM186.043 102.883H185.543V103.383H186.043V102.883ZM186.043 97.5977V97.0977H185.543V97.5977H186.043ZM196.418 101.195C196.418 102.302 196.181 103.103 195.768 103.655C195.361 104.199 194.739 104.562 193.837 104.71L193.999 105.697C195.097 105.516 195.975 105.047 196.568 104.255C197.155 103.471 197.418 102.433 197.418 101.195H196.418ZM193.465 105.414L196.629 112.211L197.535 111.789L194.371 104.992L193.465 105.414ZM197.082 111.5H194.422V112.5H197.082V111.5ZM194.875 111.789L191.758 105.075L190.851 105.496L193.968 112.211L194.875 111.789ZM191.305 104.785H186.043V105.785H191.305V104.785ZM185.543 105.285V112H186.543V105.285H185.543ZM186.043 111.5H183.641V112.5H186.043V111.5ZM184.141 112V95.1953H183.141V112H184.141ZM183.641 95.6953H192.84V94.6953H183.641V95.6953ZM192.84 95.6953C194.122 95.6953 194.991 96.0163 195.544 96.5708C196.098 97.1256 196.418 97.9986 196.418 99.2852H197.418C197.418 97.8452 197.059 96.6733 196.252 95.8647C195.446 95.0559 194.277 94.6953 192.84 94.6953V95.6953ZM196.418 99.2852V101.195H197.418V99.2852H196.418ZM186.043 103.383H192.711V102.383H186.043V103.383ZM192.711 103.383C193.406 103.383 194.029 103.233 194.447 102.814L193.74 102.107C193.596 102.251 193.297 102.383 192.711 102.383V103.383ZM194.447 102.814C194.866 102.396 195.016 101.774 195.016 101.078H194.016C194.016 101.664 193.884 101.963 193.74 102.107L194.447 102.814ZM195.016 101.078V99.4023H194.016V101.078H195.016ZM195.016 99.4023C195.016 98.7068 194.866 98.0845 194.447 97.666L193.74 98.3731C193.884 98.5171 194.016 98.8166 194.016 99.4023H195.016ZM194.447 97.666C194.029 97.2475 193.406 97.0977 192.711 97.0977V98.0977C193.297 98.0977 193.596 98.2291 193.74 98.3731L194.447 97.666ZM192.711 97.0977H186.043V98.0977H192.711V97.0977ZM185.543 97.5977V102.883H186.543V97.5977H185.543ZM211.262 106.938V107.438H211.762V106.938H211.262ZM203 106.938V106.438H202.5V106.938H203ZM203 109.691H202.5V110.191H203V109.691ZM211.262 109.691H211.762V109.191H211.262V109.691ZM211.262 112V112.5H211.762V112H211.262ZM202.109 111.824L201.906 112.281L201.917 112.286L202.109 111.824ZM201.371 111.332L201.011 111.679L201.017 111.686L201.024 111.692L201.371 111.332ZM200.879 110.594L200.417 110.786L200.422 110.797L200.879 110.594ZM200.879 100.926L200.422 100.723L200.417 100.733L200.879 100.926ZM202.109 99.707L202.302 100.169L202.312 100.164L202.109 99.707ZM209.855 99.707L209.652 100.164L209.663 100.169L209.855 99.707ZM210.582 100.199L210.222 100.546L210.228 100.553L210.235 100.559L210.582 100.199ZM211.074 100.926L210.613 101.118L210.617 101.129L211.074 100.926ZM203 101.828V101.328H202.5V101.828H203ZM203 104.629H202.5V105.129H203V104.629ZM208.953 104.629V105.129H209.453V104.629H208.953ZM208.953 101.828H209.453V101.328H208.953V101.828ZM211.262 106.438H203V107.438H211.262V106.438ZM202.5 106.938V109.691H203.5V106.938H202.5ZM203 110.191H211.262V109.191H203V110.191ZM210.762 109.691V112H211.762V109.691H210.762ZM211.262 111.5H203V112.5H211.262V111.5ZM203 111.5C202.752 111.5 202.52 111.454 202.302 111.363L201.917 112.286C202.261 112.429 202.623 112.5 203 112.5V111.5ZM202.312 111.367C202.082 111.265 201.885 111.133 201.718 110.972L201.024 111.692C201.279 111.938 201.575 112.134 201.906 112.281L202.312 111.367ZM201.731 110.985C201.571 110.818 201.438 110.621 201.336 110.391L200.422 110.797C200.569 111.129 200.765 111.424 201.011 111.679L201.731 110.985ZM201.34 110.401C201.25 110.184 201.203 109.949 201.203 109.691H200.203C200.203 110.074 200.273 110.441 200.417 110.786L201.34 110.401ZM201.203 109.691V101.828H200.203V109.691H201.203ZM201.203 101.828C201.203 101.57 201.25 101.335 201.34 101.118L200.417 100.733C200.273 101.079 200.203 101.445 200.203 101.828H201.203ZM201.336 101.129C201.438 100.9 201.568 100.709 201.725 100.553L201.018 99.8457C200.768 100.095 200.57 100.389 200.422 100.723L201.336 101.129ZM201.725 100.553C201.888 100.389 202.079 100.261 202.302 100.169L201.917 99.2455C201.577 99.3872 201.276 99.5875 201.018 99.8457L201.725 100.553ZM202.312 100.164C202.529 100.068 202.756 100.02 203 100.02V99.0195C202.619 99.0195 202.252 99.0963 201.906 99.2501L202.312 100.164ZM203 100.02H208.953V99.0195H203V100.02ZM208.953 100.02C209.206 100.02 209.438 100.069 209.652 100.164L210.059 99.2501C209.711 99.0956 209.34 99.0195 208.953 99.0195V100.02ZM209.663 100.169C209.884 100.261 210.068 100.386 210.222 100.546L210.942 99.8524C210.69 99.5901 210.39 99.3879 210.048 99.2455L209.663 100.169ZM210.235 100.559C210.395 100.713 210.521 100.897 210.613 101.118L211.536 100.733C211.393 100.392 211.191 100.092 210.929 99.8391L210.235 100.559ZM210.617 101.129C210.713 101.344 210.762 101.575 210.762 101.828H211.762C211.762 101.441 211.686 101.071 211.531 100.723L210.617 101.129ZM210.762 101.828V106.938H211.762V101.828H210.762ZM202.5 101.828V104.629H203.5V101.828H202.5ZM203 105.129H208.953V104.129H203V105.129ZM209.453 104.629V101.828H208.453V104.629H209.453ZM208.953 101.328H203V102.328H208.953V101.328ZM226.156 112V112.5H226.656V112H226.156ZM223.848 112H223.348V112.5H223.848V112ZM223.848 101.828H224.348V101.328H223.848V101.828ZM217.414 101.828V101.328H216.914V101.828H217.414ZM217.414 112V112.5H217.914V112H217.414ZM215.117 112H214.617V112.5H215.117V112ZM215.117 99.5195V99.0195H214.617V99.5195H215.117ZM217.414 99.5195H217.914V99.0195H217.414V99.5195ZM217.414 101.723H216.914L217.913 101.748L217.414 101.723ZM217.625 100.867L218.077 101.08L218.08 101.075L217.625 100.867ZM218.117 100.164L218.464 100.524L218.464 100.524L218.117 100.164ZM218.844 99.6953L219.03 100.16L219.041 100.155L218.844 99.6953ZM224.75 99.707L224.547 100.164L224.558 100.169L224.75 99.707ZM225.477 100.199L225.116 100.546L225.123 100.553L225.13 100.559L225.477 100.199ZM225.969 100.926L225.507 101.118L225.512 101.129L225.969 100.926ZM226.156 111.5H223.848V112.5H226.156V111.5ZM224.348 112V101.828H223.348V112H224.348ZM223.848 101.328H217.414V102.328H223.848V101.328ZM216.914 101.828V112H217.914V101.828H216.914ZM217.414 111.5H215.117V112.5H217.414V111.5ZM215.617 112V99.5195H214.617V112H215.617ZM215.117 100.02H217.414V99.0195H215.117V100.02ZM216.914 99.5195V101.723H217.914V99.5195H216.914ZM217.913 101.748C217.926 101.506 217.981 101.285 218.077 101.08L217.173 100.654C217.019 100.981 216.934 101.33 216.915 101.697L217.913 101.748ZM218.08 101.075C218.18 100.855 218.309 100.673 218.464 100.524L217.771 99.8036C217.519 100.045 217.32 100.333 217.17 100.659L218.08 101.075ZM218.464 100.524C218.628 100.366 218.816 100.245 219.029 100.16L218.658 99.2311C218.325 99.3643 218.028 99.5558 217.77 99.8039L218.464 100.524ZM219.041 100.155C219.249 100.066 219.474 100.02 219.723 100.02V99.0195C219.346 99.0195 218.986 99.0905 218.647 99.2357L219.041 100.155ZM219.723 100.02H223.848V99.0195H219.723V100.02ZM223.848 100.02C224.101 100.02 224.332 100.069 224.547 100.164L224.953 99.2501C224.605 99.0956 224.235 99.0195 223.848 99.0195V100.02ZM224.558 100.169C224.778 100.261 224.963 100.386 225.116 100.546L225.837 99.8524C225.584 99.5901 225.284 99.3879 224.942 99.2455L224.558 100.169ZM225.13 100.559C225.289 100.713 225.415 100.897 225.507 101.118L226.43 100.733C226.288 100.392 226.086 100.092 225.823 99.8391L225.13 100.559ZM225.512 101.129C225.607 101.344 225.656 101.575 225.656 101.828H226.656C226.656 101.441 226.58 101.071 226.426 100.723L225.512 101.129ZM225.656 101.828V112H226.656V101.828H225.656ZM229.273 99.5195V99.0195H228.773V99.5195H229.273ZM232.32 99.5195V100.02H232.82V99.5195H232.32ZM232.32 95.6758V95.1758H231.82V95.6758H232.32ZM234.629 95.6758H235.129V95.1758H234.629V95.6758ZM234.629 99.5195H234.129V100.02H234.629V99.5195ZM238.73 99.5195H239.23V99.0195H238.73V99.5195ZM238.73 101.828V102.328H239.23V101.828H238.73ZM234.629 101.828V101.328H234.129V101.828H234.629ZM234.629 109.691H234.129V110.191H234.629V109.691ZM238.73 109.691H239.23V109.191H238.73V109.691ZM238.73 112V112.5H239.23V112H238.73ZM233.738 111.824L233.535 112.281L233.546 112.286L233.738 111.824ZM233 111.332L232.646 111.686L232.653 111.692L233 111.332ZM232.496 110.594L232.034 110.786L232.039 110.797L232.496 110.594ZM232.32 101.828H232.82V101.328H232.32V101.828ZM229.273 101.828H228.773V102.328H229.273V101.828ZM229.273 100.02H232.32V99.0195H229.273V100.02ZM232.82 99.5195V95.6758H231.82V99.5195H232.82ZM232.32 96.1758H234.629V95.1758H232.32V96.1758ZM234.129 95.6758V99.5195H235.129V95.6758H234.129ZM234.629 100.02H238.73V99.0195H234.629V100.02ZM238.23 99.5195V101.828H239.23V99.5195H238.23ZM238.73 101.328H234.629V102.328H238.73V101.328ZM234.129 101.828V109.691H235.129V101.828H234.129ZM234.629 110.191H238.73V109.191H234.629V110.191ZM238.23 109.691V112H239.23V109.691H238.23ZM238.73 111.5H234.629V112.5H238.73V111.5ZM234.629 111.5C234.381 111.5 234.149 111.454 233.931 111.363L233.546 112.286C233.89 112.429 234.252 112.5 234.629 112.5V111.5ZM233.941 111.367C233.711 111.265 233.514 111.133 233.347 110.972L232.653 111.692C232.908 111.938 233.204 112.134 233.535 112.281L233.941 111.367ZM233.354 110.978C233.187 110.812 233.054 110.618 232.953 110.391L232.039 110.797C232.188 111.132 232.391 111.43 232.646 111.686L233.354 110.978ZM232.958 110.401C232.867 110.184 232.82 109.949 232.82 109.691H231.82C231.82 110.074 231.891 110.441 232.035 110.786L232.958 110.401ZM232.82 109.691V101.828H231.82V109.691H232.82ZM232.32 101.328H229.273V102.328H232.32V101.328ZM229.773 101.828V99.5195H228.773V101.828H229.773ZM245.012 99.5195H245.512V99.0195H245.012V99.5195ZM245.012 112V112.5H245.512V112H245.012ZM242.703 112H242.203V112.5H242.703V112ZM242.703 99.5195V99.0195H242.203V99.5195H242.703ZM242.586 94.7148V94.2148H242.086V94.7148H242.586ZM245.129 94.7148H245.629V94.2148H245.129V94.7148ZM245.129 97.1172V97.6172H245.629V97.1172H245.129ZM242.586 97.1172H242.086V97.6172H242.586V97.1172ZM244.512 99.5195V112H245.512V99.5195H244.512ZM245.012 111.5H242.703V112.5H245.012V111.5ZM243.203 112V99.5195H242.203V112H243.203ZM242.703 100.02H245.012V99.0195H242.703V100.02ZM242.586 95.2148H245.129V94.2148H242.586V95.2148ZM244.629 94.7148V97.1172H245.629V94.7148H244.629ZM245.129 96.6172H242.586V97.6172H245.129V96.6172ZM243.086 97.1172V94.7148H242.086V97.1172H243.086ZM260.023 112V112.5H260.523V112H260.023ZM257.715 112H257.215V112.5H257.715V112ZM257.715 101.828H258.215V101.328H257.715V101.828ZM251.281 101.828V101.328H250.781V101.828H251.281ZM251.281 112V112.5H251.781V112H251.281ZM248.984 112H248.484V112.5H248.984V112ZM248.984 99.5195V99.0195H248.484V99.5195H248.984ZM251.281 99.5195H251.781V99.0195H251.281V99.5195ZM251.281 101.723H250.781L251.781 101.748L251.281 101.723ZM251.492 100.867L251.945 101.08L251.947 101.075L251.492 100.867ZM251.984 100.164L252.331 100.524L252.331 100.524L251.984 100.164ZM252.711 99.6953L252.897 100.16L252.908 100.155L252.711 99.6953ZM258.617 99.707L258.414 100.164L258.425 100.169L258.617 99.707ZM259.344 100.199L258.984 100.546L258.99 100.553L258.997 100.559L259.344 100.199ZM259.836 100.926L259.374 101.118L259.379 101.129L259.836 100.926ZM260.023 111.5H257.715V112.5H260.023V111.5ZM258.215 112V101.828H257.215V112H258.215ZM257.715 101.328H251.281V102.328H257.715V101.328ZM250.781 101.828V112H251.781V101.828H250.781ZM251.281 111.5H248.984V112.5H251.281V111.5ZM249.484 112V99.5195H248.484V112H249.484ZM248.984 100.02H251.281V99.0195H248.984V100.02ZM250.781 99.5195V101.723H251.781V99.5195H250.781ZM251.781 101.748C251.793 101.506 251.848 101.285 251.945 101.08L251.04 100.654C250.886 100.981 250.801 101.33 250.782 101.697L251.781 101.748ZM251.947 101.075C252.048 100.855 252.176 100.673 252.331 100.524L251.638 99.8036C251.386 100.045 251.187 100.333 251.037 100.659L251.947 101.075ZM252.331 100.524C252.495 100.366 252.683 100.245 252.897 100.16L252.525 99.2311C252.192 99.3643 251.895 99.5558 251.638 99.8039L252.331 100.524ZM252.908 100.155C253.116 100.066 253.342 100.02 253.59 100.02V99.0195C253.213 99.0195 252.853 99.0905 252.514 99.2357L252.908 100.155ZM253.59 100.02H257.715V99.0195H253.59V100.02ZM257.715 100.02C257.968 100.02 258.199 100.069 258.414 100.164L258.82 99.2501C258.472 99.0956 258.102 99.0195 257.715 99.0195V100.02ZM258.425 100.169C258.646 100.261 258.83 100.386 258.984 100.546L259.704 99.8524C259.451 99.5901 259.151 99.3879 258.809 99.2455L258.425 100.169ZM258.997 100.559C259.157 100.713 259.282 100.897 259.374 101.118L260.297 100.733C260.155 100.392 259.953 100.092 259.691 99.8391L258.997 100.559ZM259.379 101.129C259.474 101.344 259.523 101.575 259.523 101.828H260.523C260.523 101.441 260.447 101.071 260.293 100.723L259.379 101.129ZM259.523 101.828V112H260.523V101.828H259.523ZM264.043 100.926L263.586 100.723L263.581 100.733L264.043 100.926ZM265.273 99.707L265.466 100.169L265.477 100.164L265.273 99.707ZM271.168 99.6953L270.971 100.155L270.982 100.16L271.168 99.6953ZM271.883 100.164L271.529 100.518L271.536 100.524L271.543 100.531L271.883 100.164ZM272.387 100.867L271.932 101.075L271.936 101.083L271.94 101.091L272.387 100.867ZM272.598 101.723L272.098 101.735L273.098 101.723H272.598ZM272.598 99.5195V99.0195H272.098V99.5195H272.598ZM274.906 99.5195H275.406V99.0195H274.906V99.5195ZM274.719 115.633L274.262 115.43L274.257 115.441L274.719 115.633ZM274.227 116.359L273.88 115.999L273.873 116.006L273.866 116.013L274.227 116.359ZM273.5 116.852L273.308 116.39L273.297 116.395L273.5 116.852ZM265.309 117.039H264.809V117.539H265.309V117.039ZM265.309 114.73V114.23H264.809V114.73H265.309ZM272.598 114.73V115.23H273.098V114.73H272.598ZM272.598 111.52H273.098V111.02H272.598V111.52ZM265.273 111.344L265.07 111.801L265.081 111.805L265.273 111.344ZM264.535 110.852L264.175 111.198L264.182 111.205L264.188 111.212L264.535 110.852ZM264.043 110.113L263.581 110.306L263.586 110.316L264.043 110.113ZM272.598 109.211V109.711H273.098V109.211H272.598ZM272.598 101.828H273.098V101.328H272.598V101.828ZM266.164 101.828V101.328H265.664V101.828H266.164ZM266.164 109.211H265.664V109.711H266.164V109.211ZM264.367 101.828C264.367 101.57 264.414 101.335 264.505 101.118L263.581 100.733C263.438 101.079 263.367 101.445 263.367 101.828H264.367ZM264.5 101.129C264.602 100.9 264.732 100.709 264.889 100.553L264.182 99.8457C263.932 100.095 263.734 100.389 263.586 100.723L264.5 101.129ZM264.889 100.553C265.052 100.389 265.243 100.261 265.466 100.169L265.081 99.2455C264.741 99.3872 264.44 99.5875 264.182 99.8457L264.889 100.553ZM265.477 100.164C265.693 100.068 265.92 100.02 266.164 100.02V99.0195C265.783 99.0195 265.417 99.0963 265.07 99.2501L265.477 100.164ZM266.164 100.02H270.301V99.0195H266.164V100.02ZM270.301 100.02C270.539 100.02 270.761 100.065 270.971 100.155L271.365 99.2357C271.028 99.0912 270.672 99.0195 270.301 99.0195V100.02ZM270.982 100.16C271.194 100.244 271.375 100.364 271.529 100.518L272.236 99.8105C271.984 99.5583 271.688 99.3649 271.354 99.2311L270.982 100.16ZM271.543 100.531C271.703 100.679 271.833 100.859 271.932 101.075L272.841 100.659C272.69 100.329 272.484 100.039 272.223 99.7972L271.543 100.531ZM271.94 101.091C272.039 101.289 272.092 101.502 272.098 101.735L273.097 101.71C273.088 101.334 273 100.977 272.834 100.644L271.94 101.091ZM273.098 101.723V99.5195H272.098V101.723H273.098ZM272.598 100.02H274.906V99.0195H272.598V100.02ZM274.406 99.5195V114.73H275.406V99.5195H274.406ZM274.406 114.73C274.406 114.984 274.357 115.215 274.262 115.43L275.176 115.836C275.33 115.488 275.406 115.118 275.406 114.73H274.406ZM274.257 115.441C274.165 115.661 274.039 115.846 273.88 115.999L274.573 116.72C274.836 116.467 275.038 116.167 275.18 115.825L274.257 115.441ZM273.866 116.013C273.713 116.172 273.528 116.298 273.308 116.39L273.692 117.313C274.034 117.171 274.334 116.968 274.587 116.706L273.866 116.013ZM273.297 116.395C273.082 116.49 272.851 116.539 272.598 116.539V117.539C272.985 117.539 273.355 117.463 273.703 117.308L273.297 116.395ZM272.598 116.539H265.309V117.539H272.598V116.539ZM265.809 117.039V114.73H264.809V117.039H265.809ZM265.309 115.23H272.598V114.23H265.309V115.23ZM273.098 114.73V111.52H272.098V114.73H273.098ZM272.598 111.02H266.164V112.02H272.598V111.02ZM266.164 111.02C265.916 111.02 265.684 110.973 265.466 110.882L265.081 111.805C265.425 111.949 265.787 112.02 266.164 112.02V111.02ZM265.477 110.887C265.246 110.784 265.049 110.652 264.882 110.491L264.188 111.212C264.443 111.457 264.739 111.653 265.07 111.801L265.477 110.887ZM264.895 110.505C264.735 110.338 264.602 110.141 264.5 109.91L263.586 110.316C263.733 110.648 263.929 110.943 264.175 111.198L264.895 110.505ZM264.505 109.921C264.414 109.704 264.367 109.469 264.367 109.211H263.367C263.367 109.594 263.438 109.96 263.581 110.306L264.505 109.921ZM264.367 109.211V101.828H263.367V109.211H264.367ZM273.098 109.211V101.828H272.098V109.211H273.098ZM272.598 101.328H266.164V102.328H272.598V101.328ZM265.664 101.828V109.211H266.664V101.828H265.664ZM266.164 109.711H272.598V108.711H266.164V109.711Z" fill="white"/>
</svg>
